<svg xmlns="http://www.w3.org/2000/svg" width="972" height="972" viewBox="0 0 972 972">
  <metadata><?xpacket begin="﻿" id="W5M0MpCehiHzreSzNTczkc9d"?>
<x:xmpmeta xmlns:x="adobe:ns:meta/" x:xmptk="Adobe XMP Core 5.6-c138 79.159824, 2016/09/14-01:09:01        ">
   <rdf:RDF xmlns:rdf="http://www.w3.org/1999/02/22-rdf-syntax-ns#">
      <rdf:Description rdf:about=""/>
   </rdf:RDF>
</x:xmpmeta>

<?xpacket end="w"?></metadata>
<defs>
    <style>
      .cls-1 {
        fill: #fff;
      }

      .cls-10, .cls-11, .cls-2, .cls-3, .cls-4, .cls-5, .cls-6, .cls-7, .cls-8, .cls-9 {
        fill: none;
        stroke-linecap: square;
        fill-rule: evenodd;
      }

      .cls-2 {
        stroke: #fcfcfc;
        stroke-width: 10px;
      }

      .cls-3 {
        stroke: #fbfbfb;
        stroke-width: 9px;
      }

      .cls-4 {
        stroke: #f9f9f9;
        stroke-width: 8px;
      }

      .cls-5 {
        stroke: #f7f7f7;
        stroke-width: 7px;
      }

      .cls-6 {
        stroke: #f4f4f4;
        stroke-width: 6px;
      }

      .cls-7 {
        stroke: #ebebeb;
        stroke-width: 5px;
      }

      .cls-8 {
        stroke: #e4e4e4;
        stroke-width: 4px;
      }

      .cls-9 {
        stroke: #dbdbdb;
        stroke-width: 3px;
      }

      .cls-10 {
        stroke: #d4d4d4;
        stroke-width: 2px;
      }

      .cls-11 {
        stroke: #aeaeae;
        stroke-width: 1px;
      }
    </style>
  </defs>
<rect id="_" data-name="◯" class="cls-1" width="972" height="972"/>
<a href="https://www.wolframalpha.com/input?i=%23FCFCFC" target="_BLANK"><path id="_·_" data-name="ⵔ·ⵔ" class="cls-2" d="M405,243H567A162,162,0,0,1,729,405V567A162,162,0,0,1,567,729H405A162,162,0,0,1,243,567V405A162,162,0,0,1,405,243Z"/></a>
<a href="https://www.wolframalpha.com/input?i=%23FBFBFB" target="_BLANK"><path id="_2" data-name="⁂" class="cls-3" d="M405,243H567A162,162,0,0,1,729,405V567A162,162,0,0,1,567,729H405A162,162,0,0,1,243,567V405A162,162,0,0,1,405,243Z"/></a>
<a href="https://www.wolframalpha.com/input?i=%23F9F9F9" target="_BLANK"><path id="_3" data-name="❋" class="cls-4" d="M405,243H567A162,162,0,0,1,729,405V567A162,162,0,0,1,567,729H405A162,162,0,0,1,243,567V405A162,162,0,0,1,405,243Z"/></a>
<a href="https://www.wolframalpha.com/input?i=%23F7F7F7" target="_BLANK"><path id="_4" data-name="△" class="cls-5" d="M405,243H567A162,162,0,0,1,729,405V567A162,162,0,0,1,567,729H405A162,162,0,0,1,243,567V405A162,162,0,0,1,405,243Z"/></a>
<a href="https://www.wolframalpha.com/input?i=%23F4F4F4" target="_BLANK"><path id="_5" data-name="⠿" class="cls-6" d="M405,243H567A162,162,0,0,1,729,405V567A162,162,0,0,1,567,729H405A162,162,0,0,1,243,567V405A162,162,0,0,1,405,243Z"/></a>
<a href="https://www.wolframalpha.com/input?i=%23EBEBEB" target="_BLANK"><path id="_6" data-name="⁙" class="cls-7" d="M405,243H567A162,162,0,0,1,729,405V567A162,162,0,0,1,567,729H405A162,162,0,0,1,243,567V405A162,162,0,0,1,405,243Z"/></a>
<a href="https://www.wolframalpha.com/input?i=%23E4E4E4" target="_BLANK"><path id="_7" data-name="∷" class="cls-8" d="M405,243H567A162,162,0,0,1,729,405V567A162,162,0,0,1,567,729H405A162,162,0,0,1,243,567V405A162,162,0,0,1,405,243Z"/></a>
<a href="https://www.wolframalpha.com/input?i=%23DBDBDB" target="_BLANK"><path id="_8" data-name="⋯" class="cls-9" d="M405,243H567A162,162,0,0,1,729,405V567A162,162,0,0,1,567,729H405A162,162,0,0,1,243,567V405A162,162,0,0,1,405,243Z"/></a>
<a href="https://www.wolframalpha.com/input?i=%23D4D4D4" target="_BLANK"><path id="_9" data-name="꞉" class="cls-10" d="M405,243H567A162,162,0,0,1,729,405V567A162,162,0,0,1,567,729H405A162,162,0,0,1,243,567V405A162,162,0,0,1,405,243Z"/></a>
<a href="https://www.wolframalpha.com/input?i=%23AEAEAE" target="_BLANK"><path id="_·" data-name="·" class="cls-11" d="M405,243H567A162,162,0,0,1,729,405V567A162,162,0,0,1,567,729H405A162,162,0,0,1,243,567V405A162,162,0,0,1,405,243Z"/></a>
</svg>