  0
SECTION
  2
HEADER
  9
$ACADVER
  1
AC1009
  9
$DWGCODEPAGE
  3
ansi_1252
  9
$INSBASE
 10
0.0
 20
0.0
 30
0.0
  9
$EXTMIN
 10
-2047.630489874631
 20
-0.0000000000001137
 30
-2047.630489874631
  9
$EXTMAX
 10
2047.630489874631
 20
-0.0000000000001137
 30
2047.630489874631
  9
$LIMMIN
 10
0.0
 20
0.0
  9
$LIMMAX
 10
12.0
 20
9.0
  9
$ORTHOMODE
 70
     0
  9
$REGENMODE
 70
     1
  9
$FILLMODE
 70
     1
  9
$QTEXTMODE
 70
     0
  9
$MIRRTEXT
 70
     1
  9
$DRAGMODE
 70
     2
  9
$LTSCALE
 40
1.0
  9
$OSMODE
 70
    37
  9
$ATTMODE
 70
     1
  9
$TEXTSIZE
 40
0.2
  9
$TRACEWID
 40
0.05
  9
$TEXTSTYLE
  7
STANDARD
  9
$CLAYER
  8
0
  9
$CELTYPE
  6
BYLAYER
  9
$CECOLOR
 62
   256
  9
$DIMSCALE
 40
1.0
  9
$DIMASZ
 40
0.18
  9
$DIMEXO
 40
0.0625
  9
$DIMDLI
 40
0.38
  9
$DIMRND
 40
0.0
  9
$DIMDLE
 40
0.0
  9
$DIMEXE
 40
0.18
  9
$DIMTP
 40
0.0
  9
$DIMTM
 40
0.0
  9
$DIMTXT
 40
0.18
  9
$DIMCEN
 40
0.09
  9
$DIMTSZ
 40
0.0
  9
$DIMTOL
 70
     0
  9
$DIMLIM
 70
     0
  9
$DIMTIH
 70
     1
  9
$DIMTOH
 70
     1
  9
$DIMSE1
 70
     0
  9
$DIMSE2
 70
     0
  9
$DIMTAD
 70
     0
  9
$DIMZIN
 70
     0
  9
$DIMBLK
  1

  9
$DIMASO
 70
     1
  9
$DIMSHO
 70
     1
  9
$DIMPOST
  1

  9
$DIMAPOST
  1

  9
$DIMALT
 70
     0
  9
$DIMALTD
 70
     2
  9
$DIMALTF
 40
25.4
  9
$DIMLFAC
 40
1.0
  9
$DIMTOFL
 70
     0
  9
$DIMTVP
 40
0.0
  9
$DIMTIX
 70
     0
  9
$DIMSOXD
 70
     0
  9
$DIMSAH
 70
     0
  9
$DIMBLK1
  1

  9
$DIMBLK2
  1

  9
$DIMSTYLE
  2
STANDARD
  9
$DIMCLRD
 70
     0
  9
$DIMCLRE
 70
     0
  9
$DIMCLRT
 70
     0
  9
$DIMTFAC
 40
1.0
  9
$DIMGAP
 40
0.09
  9
$LUNITS
 70
     2
  9
$LUPREC
 70
     3
  9
$SKETCHINC
 40
0.1
  9
$FILLETRAD
 40
0.5
  9
$AUNITS
 70
     0
  9
$AUPREC
 70
     0
  9
$MENU
  1
.
  9
$ELEVATION
 40
0.0
  9
$PELEVATION
 40
0.0
  9
$THICKNESS
 40
0.0
  9
$LIMCHECK
 70
     0
  9
$CHAMFERA
 40
0.0
  9
$CHAMFERB
 40
0.0
  9
$SKPOLY
 70
     0
  9
$TDCREATE
 40
2459203.528063565
  9
$TDUPDATE
 40
2459203.528085046
  9
$TDINDWG
 40
0.0000000116
  9
$TDUSRTIMER
 40
0.0000000116
  9
$USRTIMER
 70
     1
  9
$ANGBASE
 50
0.0
  9
$ANGDIR
 70
     0
  9
$PDMODE
 70
     0
  9
$PDSIZE
 40
0.0
  9
$PLINEWID
 40
0.0
  9
$COORDS
 70
     1
  9
$SPLFRAME
 70
     0
  9
$SPLINETYPE
 70
     6
  9
$SPLINESEGS
 70
     8
  9
$ATTDIA
 70
     0
  9
$ATTREQ
 70
     1
  9
$HANDLING
 70
     1
  9
$HANDSEED
  5
1E9
  9
$SURFTAB1
 70
     6
  9
$SURFTAB2
 70
     6
  9
$SURFTYPE
 70
     6
  9
$SURFU
 70
     6
  9
$SURFV
 70
     6
  9
$UCSNAME
  2

  9
$UCSORG
 10
0.0
 20
0.0
 30
0.0
  9
$UCSXDIR
 10
1.0
 20
0.0
 30
0.0
  9
$UCSYDIR
 10
0.0
 20
1.0
 30
0.0
  9
$PUCSNAME
  2

  9
$PUCSORG
 10
0.0
 20
0.0
 30
0.0
  9
$PUCSXDIR
 10
1.0
 20
0.0
 30
0.0
  9
$PUCSYDIR
 10
0.0
 20
1.0
 30
0.0
  9
$USERI1
 70
     0
  9
$USERI2
 70
     0
  9
$USERI3
 70
     0
  9
$USERI4
 70
     0
  9
$USERI5
 70
     0
  9
$USERR1
 40
0.0
  9
$USERR2
 40
0.0
  9
$USERR3
 40
0.0
  9
$USERR4
 40
0.0
  9
$USERR5
 40
0.0
  9
$WORLDVIEW
 70
     1
  9
$SHADEDGE
 70
     3
  9
$SHADEDIF
 70
    70
  9
$TILEMODE
 70
     1
  9
$MAXACTVP
 70
    64
  9
$PLIMCHECK
 70
     0
  9
$PEXTMIN
 10
1.000000000000000E+20
 20
1.000000000000000E+20
 30
1.000000000000000E+20
  9
$PEXTMAX
 10
-1.000000000000000E+20
 20
-1.000000000000000E+20
 30
-1.000000000000000E+20
  9
$PLIMMIN
 10
0.0
 20
0.0
  9
$PLIMMAX
 10
12.0
 20
9.0
  9
$UNITMODE
 70
     0
  9
$VISRETAIN
 70
     1
  9
$PLINEGEN
 70
     0
  9
$PSLTSCALE
 70
     1
  0
ENDSEC
  0
SECTION
  2
TABLES
  0
TABLE
  2
VPORT
 70
     1
  0
VPORT
  2
*ACTIVE
 70
     0
 10
0.0
 20
0.0
 11
1.0
 21
1.0
 12
0.0
 22
0.0
 13
0.0
 23
0.0
 14
0.5
 24
0.5
 15
0.5
 25
0.5
 16
0.0
 26
0.0
 36
1.0
 17
0.0
 27
-0.0000000000001137
 37
0.0
 40
2610.728874590155
 41
1.6
 42
50.0
 43
0.0
 44
0.0
 50
0.0
 51
0.0
 71
     0
 72
   100
 73
     1
 74
     3
 75
     0
 76
     0
 77
     0
 78
     0
  0
ENDTAB
  0
TABLE
  2
LTYPE
 70
     1
  0
LTYPE
  2
CONTINUOUS
 70
     0
  3
Solid line
 72
    65
 73
     0
 40
0.0
  0
ENDTAB
  0
TABLE
  2
LAYER
 70
     1
  0
LAYER
  2
0
 70
     0
 62
     7
  6
CONTINUOUS
  0
ENDTAB
  0
TABLE
  2
STYLE
 70
     1
  0
STYLE
  2
STANDARD
 70
     0
 40
0.0
 41
1.0
 50
0.0
 71
     0
 42
0.2
  3
txt
  4

  0
ENDTAB
  0
TABLE
  2
VIEW
 70
     0
  0
ENDTAB
  0
TABLE
  2
UCS
 70
     0
  0
ENDTAB
  0
TABLE
  2
APPID
 70
     1
  0
APPID
  2
ACAD
 70
     0
  0
ENDTAB
  0
TABLE
  2
DIMSTYLE
 70
     1
  0
DIMSTYLE
  2
STANDARD
 70
     0
  3

  4

  5

  6

  7

 40
1.0
 41
0.18
 42
0.0625
 43
0.38
 44
0.18
 45
0.0
 46
0.0
 47
0.0
 48
0.0
140
0.18
141
0.09
142
0.0
143
25.4
144
1.0
145
0.0
146
1.0
147
0.09
 71
     0
 72
     0
 73
     1
 74
     1
 75
     0
 76
     0
 77
     0
 78
     0
170
     0
171
     2
172
     0
173
     0
174
     0
175
     0
176
     0
177
     0
178
     0
  0
ENDTAB
  0
ENDSEC
  0
SECTION
  2
BLOCKS
  0
BLOCK
  8
0
  2
$MODEL_SPACE
 70
     0
 10
0.0
 20
0.0
 30
0.0
  3
$MODEL_SPACE
  1

  0
ENDBLK
  5
21
  8
0
  0
BLOCK
 67
     1
  8
0
  2
$PAPER_SPACE
 70
     0
 10
0.0
 20
0.0
 30
0.0
  3
$PAPER_SPACE
  1

  0
ENDBLK
  5
1D
 67
     1
  8
0
  0
ENDSEC
  0
SECTION
  2
ENTITIES
  0
CIRCLE
  5
6E
  8
0
  6
CONTINUOUS
 62
     7
 10
1.0
 20
1.000000000000114
 30
0.0000000000001137
 40
0.4999999999999999
210
0.0
220
-1.0
230
0.0
  0
CIRCLE
  5
6F
  8
0
  6
CONTINUOUS
 62
     7
 10
1.0
 20
-0.9999999999998863
 30
0.0000000000001137
 40
0.4999999999999999
210
0.0
220
-1.0
230
0.0
  0
CIRCLE
  5
70
  8
0
  6
CONTINUOUS
 62
     7
 10
-1.0
 20
1.000000000000114
 30
0.0000000000001137
 40
0.4999999999999999
210
0.0
220
-1.0
230
0.0
  0
CIRCLE
  5
71
  8
0
  6
CONTINUOUS
 62
     7
 10
-1.0
 20
-0.9999999999998863
 30
0.0000000000001137
 40
0.4999999999999999
210
0.0
220
-1.0
230
0.0
  0
CIRCLE
  5
72
  8
0
  6
CONTINUOUS
 62
     7
 10
0.0
 20
0.0000000000001137
 30
0.0000000000001137
 40
0.9142135623730954
210
0.0
220
-1.0
230
0.0
  0
CIRCLE
  5
73
  8
0
  6
CONTINUOUS
 62
     7
 10
0.0
 20
0.0000000000001137
 30
0.0000000000001137
 40
1.914213562373095
210
0.0
220
-1.0
230
0.0
  0
CIRCLE
  5
74
  8
0
  6
CONTINUOUS
 62
     7
 10
0.0
 20
4.370980568100114
 30
0.0000000000001137
 40
3.016178321768789
210
0.0
220
-1.0
230
0.0
  0
CIRCLE
  5
75
  8
0
  6
CONTINUOUS
 62
     7
 10
-5.7189368331
 20
5.718936833100114
 30
0.0000000000001137
 40
2.85946841655988
210
0.0
220
-1.0
230
0.0
  0
CIRCLE
  5
76
  8
0
  6
CONTINUOUS
 62
     7
 10
5.7189368331
 20
5.718936833100114
 30
0.0000000000001137
 40
2.859468416559879
210
0.0
220
-1.0
230
0.0
  0
CIRCLE
  5
77
  8
0
  6
CONTINUOUS
 62
     7
 10
0.0
 20
7.567593679000113
 30
0.0000000000001137
 40
0.1804347891232303
210
0.0
220
-1.0
230
0.0
  0
CIRCLE
  5
78
  8
0
  6
CONTINUOUS
 62
     7
 10
0.0
 20
24.99736176770011
 30
0.0000000000001137
 40
17.24933329962105
210
0.0
220
-1.0
230
0.0
  0
CIRCLE
  5
79
  8
0
  6
CONTINUOUS
 62
     7
 10
-32.7062385012
 20
32.70623850120011
 30
0.0000000000001137
 40
16.35311925058704
210
0.0
220
-1.0
230
0.0
  0
CIRCLE
  5
7A
  8
0
  6
CONTINUOUS
 62
     7
 10
0.0
 20
1.960969118300114
 30
0.0000000000001137
 40
0.0467555559062798
210
0.0
220
-1.0
230
0.0
  0
CIRCLE
  5
7B
  8
0
  6
CONTINUOUS
 62
     7
 10
1.3866145612
 20
1.386614561200114
 30
0.0000000000001137
 40
0.0467555559062795
210
0.0
220
-1.0
230
0.0
  0
CIRCLE
  5
7C
  8
0
  6
CONTINUOUS
 62
     7
 10
-1.3866145612
 20
1.386614561200114
 30
0.0000000000001137
 40
0.0467555559062797
210
0.0
220
-1.0
230
0.0
  0
CIRCLE
  5
7D
  8
0
  6
CONTINUOUS
 62
     7
 10
32.7062385012
 20
32.70623850120011
 30
0.0000000000001137
 40
16.35311925057869
210
0.0
220
-1.0
230
0.0
  0
CIRCLE
  5
7E
  8
0
  6
CONTINUOUS
 62
     7
 10
0.0
 20
43.27859022880011
 30
0.0000000000001137
 40
1.03189516149304
210
0.0
220
-1.0
230
0.0
  0
CIRCLE
  5
7F
  8
0
  6
CONTINUOUS
 62
     7
 10
0.0
 20
142.9583329443001
 30
0.0000000000001137
 40
98.64784755512522
210
0.0
220
-1.0
230
0.0
  0
CIRCLE
  5
80
  8
0
  6
CONTINUOUS
 62
     7
 10
-187.0449120374
 20
187.0449120374001
 30
0.0000000000001137
 40
93.52245602115804
210
0.0
220
-1.0
230
0.0
  0
CIRCLE
  5
81
  8
0
  6
CONTINUOUS
 62
     7
 10
187.0449120374
 20
187.0449120374001
 30
0.0000000000001137
 40
93.52245602114965
210
0.0
220
-1.0
230
0.0
  0
CIRCLE
  5
82
  8
0
  6
CONTINUOUS
 62
     7
 10
0.0
 20
247.5075237452001
 30
0.0000000000001137
 40
5.901343248186919
210
0.0
220
-1.0
230
0.0
  0
CIRCLE
  5
83
  8
0
  6
CONTINUOUS
 62
     7
 10
0.0
 20
817.5696758766001
 30
0.0000000000001137
 40
564.1608088843471
210
0.0
220
-1.0
230
0.0
  0
CIRCLE
  5
84
  8
0
  6
CONTINUOUS
 62
     7
 10
-1069.6980368983
 20
1069.6980368983
 30
0.0000000000001137
 40
534.8490184491574
210
0.0
220
-1.0
230
0.0
  0
CIRCLE
  5
85
  8
0
  6
CONTINUOUS
 62
     7
 10
1069.6980368983
 20
1069.6980368983
 30
0.0000000000001137
 40
534.8490184491574
210
0.0
220
-1.0
230
0.0
  0
CIRCLE
  5
86
  8
0
  6
CONTINUOUS
 62
     7
 10
1069.6980368983
 20
-1069.6980368983
 30
0.0000000000001137
 40
534.8490184491574
210
0.0
220
-1.0
230
0.0
  0
CIRCLE
  5
87
  8
0
  6
CONTINUOUS
 62
     7
 10
-1069.6980368983
 20
-1069.6980368983
 30
0.0000000000001137
 40
534.8490184491574
210
0.0
220
-1.0
230
0.0
  0
CIRCLE
  5
88
  8
0
  6
CONTINUOUS
 62
     7
 10
0.0
 20
-817.5696758765998
 30
0.0000000000001137
 40
564.1608088843471
210
0.0
220
-1.0
230
0.0
  0
CIRCLE
  5
89
  8
0
  6
CONTINUOUS
 62
     7
 10
0.0
 20
-247.5075237451999
 30
0.0000000000001137
 40
5.901343248186919
210
0.0
220
-1.0
230
0.0
  0
CIRCLE
  5
8A
  8
0
  6
CONTINUOUS
 62
     7
 10
187.0449120374
 20
-187.0449120373999
 30
0.0000000000001137
 40
93.52245602114965
210
0.0
220
-1.0
230
0.0
  0
CIRCLE
  5
8B
  8
0
  6
CONTINUOUS
 62
     7
 10
-187.0449120374
 20
-187.0449120373999
 30
0.0000000000001137
 40
93.52245602115804
210
0.0
220
-1.0
230
0.0
  0
CIRCLE
  5
8C
  8
0
  6
CONTINUOUS
 62
     7
 10
0.0
 20
-142.9583329442999
 30
0.0000000000001137
 40
98.64784755512522
210
0.0
220
-1.0
230
0.0
  0
CIRCLE
  5
8D
  8
0
  6
CONTINUOUS
 62
     7
 10
0.0
 20
-43.27859022879989
 30
0.0000000000001137
 40
1.03189516149304
210
0.0
220
-1.0
230
0.0
  0
CIRCLE
  5
8E
  8
0
  6
CONTINUOUS
 62
     7
 10
32.7062385012
 20
-32.70623850119988
 30
0.0000000000001137
 40
16.35311925057869
210
0.0
220
-1.0
230
0.0
  0
CIRCLE
  5
8F
  8
0
  6
CONTINUOUS
 62
     7
 10
-32.7062385012
 20
-32.70623850119988
 30
0.0000000000001137
 40
16.35311925058704
210
0.0
220
-1.0
230
0.0
  0
CIRCLE
  5
90
  8
0
  6
CONTINUOUS
 62
     7
 10
0.0
 20
-24.99736176769989
 30
0.0000000000001137
 40
17.24933329962105
210
0.0
220
-1.0
230
0.0
  0
CIRCLE
  5
91
  8
0
  6
CONTINUOUS
 62
     7
 10
0.0
 20
-7.567593678999886
 30
0.0000000000001137
 40
0.1804347891232303
210
0.0
220
-1.0
230
0.0
  0
CIRCLE
  5
92
  8
0
  6
CONTINUOUS
 62
     7
 10
5.7189368331
 20
-5.718936833099886
 30
0.0000000000001137
 40
2.859468416559879
210
0.0
220
-1.0
230
0.0
  0
CIRCLE
  5
93
  8
0
  6
CONTINUOUS
 62
     7
 10
-5.7189368331
 20
-5.718936833099886
 30
0.0000000000001137
 40
2.85946841655988
210
0.0
220
-1.0
230
0.0
  0
CIRCLE
  5
94
  8
0
  6
CONTINUOUS
 62
     7
 10
0.0
 20
-4.370980568099887
 30
0.0000000000001137
 40
3.016178321768789
210
0.0
220
-1.0
230
0.0
  0
CIRCLE
  5
95
  8
0
  6
CONTINUOUS
 62
     7
 10
1.3866145612
 20
-1.386614561199886
 30
0.0000000000001137
 40
0.0467555559062795
210
0.0
220
-1.0
230
0.0
  0
CIRCLE
  5
96
  8
0
  6
CONTINUOUS
 62
     7
 10
0.0
 20
-1.960969118299886
 30
0.0000000000001137
 40
0.0467555559062798
210
0.0
220
-1.0
230
0.0
  0
CIRCLE
  5
97
  8
0
  6
CONTINUOUS
 62
     7
 10
-1.3866145612
 20
-1.386614561199886
 30
0.0000000000001137
 40
0.0467555559062797
210
0.0
220
-1.0
230
0.0
  0
CIRCLE
  5
98
  8
0
  6
CONTINUOUS
 62
     7
 10
7.567593679
 20
0.0000000000001137
 30
0.0000000000001137
 40
0.1804347891232316
210
0.0
220
-1.0
230
0.0
  0
CIRCLE
  5
99
  8
0
  6
CONTINUOUS
 62
     7
 10
-7.567593679
 20
0.0000000000001137
 30
0.0000000000001137
 40
0.180434789123231
210
0.0
220
-1.0
230
0.0
  0
CIRCLE
  5
9A
  8
0
  6
CONTINUOUS
 62
     7
 10
-43.2785902288
 20
0.0000000000001137
 30
0.0000000000001137
 40
1.03189516149304
210
0.0
220
-1.0
230
0.0
  0
CIRCLE
  5
9B
  8
0
  6
CONTINUOUS
 62
     7
 10
43.2785902288
 20
0.0000000000001137
 30
0.0000000000001137
 40
1.03189516149304
210
0.0
220
-1.0
230
0.0
  0
CIRCLE
  5
9C
  8
0
  6
CONTINUOUS
 62
     7
 10
247.5075237452
 20
0.0000000000001137
 30
0.0000000000001137
 40
5.901343248186862
210
0.0
220
-1.0
230
0.0
  0
CIRCLE
  5
9D
  8
0
  6
CONTINUOUS
 62
     7
 10
-247.5075237452
 20
0.0000000000001137
 30
0.0000000000001137
 40
5.901343248186976
210
0.0
220
-1.0
230
0.0
  0
CIRCLE
  5
9E
  8
0
  6
CONTINUOUS
 62
     7
 10
817.5696758766
 20
0.0000000000001137
 30
0.0000000000001137
 40
564.1608088843471
210
0.0
220
-1.0
230
0.0
  0
CIRCLE
  5
9F
  8
0
  6
CONTINUOUS
 62
     7
 10
-817.5696758766
 20
0.0000000000001137
 30
0.0000000000001137
 40
564.160808884347
210
0.0
220
-1.0
230
0.0
  0
CIRCLE
  5
A0
  8
0
  6
CONTINUOUS
 62
     7
 10
-142.9583329443
 20
0.0000000000001137
 30
0.0000000000001137
 40
98.64784755512522
210
0.0
220
-1.0
230
0.0
  0
CIRCLE
  5
A1
  8
0
  6
CONTINUOUS
 62
     7
 10
142.9583329443
 20
0.0000000000001137
 30
0.0000000000001137
 40
98.64784755512522
210
0.0
220
-1.0
230
0.0
  0
CIRCLE
  5
A2
  8
0
  6
CONTINUOUS
 62
     7
 10
-24.9973617677
 20
0.0000000000001137
 30
0.0000000000001137
 40
17.24933329962105
210
0.0
220
-1.0
230
0.0
  0
CIRCLE
  5
A3
  8
0
  6
CONTINUOUS
 62
     7
 10
24.9973617677
 20
0.0000000000001137
 30
0.0000000000001137
 40
17.24933329962105
210
0.0
220
-1.0
230
0.0
  0
CIRCLE
  5
A4
  8
0
  6
CONTINUOUS
 62
     7
 10
-4.3709805681
 20
0.0000000000001137
 30
0.0000000000001137
 40
3.016178321768788
210
0.0
220
-1.0
230
0.0
  0
CIRCLE
  5
A5
  8
0
  6
CONTINUOUS
 62
     7
 10
4.3709805681
 20
0.0000000000001137
 30
0.0000000000001137
 40
3.016178321768789
210
0.0
220
-1.0
230
0.0
  0
CIRCLE
  5
A6
  8
0
  6
CONTINUOUS
 62
     7
 10
1.9609691183
 20
0.0000000000001137
 30
0.0000000000001137
 40
0.0467555559062803
210
0.0
220
-1.0
230
0.0
  0
CIRCLE
  5
A7
  8
0
  6
CONTINUOUS
 62
     7
 10
-1.9609691183
 20
0.0000000000001137
 30
0.0000000000001137
 40
0.0467555559062793
210
0.0
220
-1.0
230
0.0
  0
CIRCLE
  5
A8
  8
0
  6
CONTINUOUS
 62
     7
 10
0.0
 20
0.0000000000001137
 30
0.0000000000001137
 40
2047.630489874631
210
0.0
220
-1.0
230
0.0
  0
CIRCLE
  5
A9
  8
0
  6
CONTINUOUS
 62
     7
 10
0.0
 20
0.0000000000001137
 30
0.0000000000001137
 40
5.228329615193124
210
0.0
220
-1.0
230
0.0
  0
CIRCLE
  5
AA
  8
0
  6
CONTINUOUS
 62
     7
 10
0.0
 20
0.0000000000001137
 30
0.0000000000001137
 40
10.94726644831289
210
0.0
220
-1.0
230
0.0
  0
CIRCLE
  5
AB
  8
0
  6
CONTINUOUS
 62
     7
 10
0.0
 20
0.0000000000001137
 30
0.0000000000001137
 40
29.90048681204752
210
0.0
220
-1.0
230
0.0
  0
CIRCLE
  5
AC
  8
0
  6
CONTINUOUS
 62
     7
 10
0.0
 20
0.0000000000001137
 30
0.0000000000001137
 40
62.60672531321328
210
0.0
220
-1.0
230
0.0
  0
CIRCLE
  5
AD
  8
0
  6
CONTINUOUS
 62
     7
 10
0.0
 20
0.0000000000001137
 30
0.0000000000001137
 40
170.9989953550174
210
0.0
220
-1.0
230
0.0
  0
CIRCLE
  5
AE
  8
0
  6
CONTINUOUS
 62
     7
 10
0.0
 20
0.0000000000001137
 30
0.0000000000001137
 40
358.0439073973252
210
0.0
220
-1.0
230
0.0
  0
CIRCLE
  5
AF
  8
0
  6
CONTINUOUS
 62
     7
 10
0.0
 20
0.0000000000001137
 30
0.0000000000001137
 40
977.9324529763157
210
0.0
220
-1.0
230
0.0
  0
CIRCLE
  5
B0
  8
0
  6
CONTINUOUS
 62
     7
 10
-1.0
 20
1.000000000000114
 30
0.0000000000001137
 40
0.033719216005279
210
0.0
220
-1.0
230
0.0
  0
CIRCLE
  5
B1
  8
0
  6
CONTINUOUS
 62
     7
 10
1.0
 20
1.000000000000114
 30
0.0000000000001137
 40
0.033719216005279
210
0.0
220
-1.0
230
0.0
  0
CIRCLE
  5
B2
  8
0
  6
CONTINUOUS
 62
     7
 10
-1.0
 20
-0.9999999999998863
 30
0.0000000000001137
 40
0.0337192160052788
210
0.0
220
-1.0
230
0.0
  0
CIRCLE
  5
B3
  8
0
  6
CONTINUOUS
 62
     7
 10
1.0
 20
-0.9999999999998863
 30
0.0000000000001137
 40
0.0337192160052788
210
0.0
220
-1.0
230
0.0
  0
CIRCLE
  5
B4
  8
0
  6
CONTINUOUS
 62
     7
 10
-5.7189368331
 20
-5.718936833099886
 30
0.0000000000001137
 40
0.1928380663965117
210
0.0
220
-1.0
230
0.0
  0
CIRCLE
  5
B5
  8
0
  6
CONTINUOUS
 62
     7
 10
-5.7189368331
 20
5.718936833100114
 30
0.0000000000001137
 40
0.19283806639651
210
0.0
220
-1.0
230
0.0
  0
CIRCLE
  5
B6
  8
0
  6
CONTINUOUS
 62
     7
 10
5.7189368331
 20
5.718936833100114
 30
0.0000000000001137
 40
0.1928380663965097
210
0.0
220
-1.0
230
0.0
  0
CIRCLE
  5
B7
  8
0
  6
CONTINUOUS
 62
     7
 10
5.7189368331
 20
-5.718936833099886
 30
0.0000000000001137
 40
0.1928380663965117
210
0.0
220
-1.0
230
0.0
  0
CIRCLE
  5
B8
  8
0
  6
CONTINUOUS
 62
     7
 10
-32.7062385012
 20
-32.70623850119988
 30
0.0000000000001137
 40
1.10282872074261
210
0.0
220
-1.0
230
0.0
  0
CIRCLE
  5
B9
  8
0
  6
CONTINUOUS
 62
     7
 10
-32.7062385012
 20
32.70623850120011
 30
0.0000000000001137
 40
1.102828720742608
210
0.0
220
-1.0
230
0.0
  0
CIRCLE
  5
BA
  8
0
  6
CONTINUOUS
 62
     7
 10
32.7062385012
 20
32.70623850120011
 30
0.0000000000001137
 40
1.102828720742612
210
0.0
220
-1.0
230
0.0
  0
CIRCLE
  5
BB
  8
0
  6
CONTINUOUS
 62
     7
 10
32.7062385012
 20
-32.70623850119988
 30
0.0000000000001137
 40
1.102828720742614
210
0.0
220
-1.0
230
0.0
  0
CIRCLE
  5
BC
  8
0
  6
CONTINUOUS
 62
     7
 10
-187.0449120374
 20
-187.0449120373999
 30
0.0000000000001137
 40
6.307007791677294
210
0.0
220
-1.0
230
0.0
  0
CIRCLE
  5
BD
  8
0
  6
CONTINUOUS
 62
     7
 10
-187.0449120374
 20
187.0449120374001
 30
0.0000000000001137
 40
6.307007791677266
210
0.0
220
-1.0
230
0.0
  0
CIRCLE
  5
BE
  8
0
  6
CONTINUOUS
 62
     7
 10
187.0449120374
 20
187.0449120374001
 30
0.0000000000001137
 40
6.307007791677302
210
0.0
220
-1.0
230
0.0
  0
CIRCLE
  5
BF
  8
0
  6
CONTINUOUS
 62
     7
 10
187.0449120374
 20
-187.0449120373999
 30
0.0000000000001137
 40
6.307007791677294
210
0.0
220
-1.0
230
0.0
  0
CIRCLE
  5
C0
  8
0
  6
CONTINUOUS
 62
     7
 10
-1069.6980368983
 20
-1069.6980368983
 30
0.0000000000001137
 40
36.06937916659707
210
0.0
220
-1.0
230
0.0
  0
CIRCLE
  5
C1
  8
0
  6
CONTINUOUS
 62
     7
 10
-1069.6980368983
 20
1069.6980368983
 30
0.0000000000001137
 40
36.069379166597
210
0.0
220
-1.0
230
0.0
  0
CIRCLE
  5
C2
  8
0
  6
CONTINUOUS
 62
     7
 10
1069.6980368983
 20
1069.6980368983
 30
0.0000000000001137
 40
36.06937916659722
210
0.0
220
-1.0
230
0.0
  0
CIRCLE
  5
C3
  8
0
  6
CONTINUOUS
 62
     7
 10
1069.6980368983
 20
-1069.6980368983
 30
0.0000000000001137
 40
36.06937916659707
210
0.0
220
-1.0
230
0.0
  0
CIRCLE
  5
C4
  8
0
  6
CONTINUOUS
 62
     7
 10
0.0
 20
11.21465851910011
 30
0.0000000000001137
 40
0.2673920708254212
210
0.0
220
-1.0
230
0.0
  0
CIRCLE
  5
C5
  8
0
  6
CONTINUOUS
 62
     7
 10
-7.9299610876
 20
7.929961087600113
 30
0.0000000000001137
 40
0.2673920708254214
210
0.0
220
-1.0
230
0.0
  0
CIRCLE
  5
C6
  8
0
  6
CONTINUOUS
 62
     7
 10
-11.2146585191
 20
0.0000000000001137
 30
0.0000000000001137
 40
0.2673920708254212
210
0.0
220
-1.0
230
0.0
  0
CIRCLE
  5
C7
  8
0
  6
CONTINUOUS
 62
     7
 10
-7.9299610876
 20
-7.929961087599886
 30
0.0000000000001137
 40
0.2673920708254233
210
0.0
220
-1.0
230
0.0
  0
CIRCLE
  5
C8
  8
0
  6
CONTINUOUS
 62
     7
 10
0.0
 20
-11.21465851909989
 30
0.0000000000001137
 40
0.2673920708254212
210
0.0
220
-1.0
230
0.0
  0
CIRCLE
  5
C9
  8
0
  6
CONTINUOUS
 62
     7
 10
7.9299610876
 20
-7.929961087599886
 30
0.0000000000001137
 40
0.267392070825422
210
0.0
220
-1.0
230
0.0
  0
CIRCLE
  5
CA
  8
0
  6
CONTINUOUS
 62
     7
 10
11.2146585191
 20
0.0000000000001137
 30
0.0000000000001137
 40
0.2673920708254212
210
0.0
220
-1.0
230
0.0
  0
CIRCLE
  5
CB
  8
0
  6
CONTINUOUS
 62
     7
 10
7.9299610876
 20
7.929961087600113
 30
0.0000000000001137
 40
0.2673920708254227
210
0.0
220
-1.0
230
0.0
  0
CIRCLE
  5
CC
  8
0
  6
CONTINUOUS
 62
     7
 10
0.0
 20
64.13592367590012
 30
0.0000000000001137
 40
1.529198362727186
210
0.0
220
-1.0
230
0.0
  0
CIRCLE
  5
CD
  8
0
  6
CONTINUOUS
 62
     7
 10
-45.3509465489
 20
45.35094654890011
 30
0.0000000000001137
 40
1.529198362727172
210
0.0
220
-1.0
230
0.0
  0
CIRCLE
  5
CE
  8
0
  6
CONTINUOUS
 62
     7
 10
-64.1359236759
 20
0.0000000000001137
 30
0.0000000000001137
 40
1.529198362727186
210
0.0
220
-1.0
230
0.0
  0
CIRCLE
  5
CF
  8
0
  6
CONTINUOUS
 62
     7
 10
-45.3509465489
 20
-45.35094654889988
 30
0.0000000000001137
 40
1.529198362727177
210
0.0
220
-1.0
230
0.0
  0
CIRCLE
  5
D0
  8
0
  6
CONTINUOUS
 62
     7
 10
0.0
 20
-64.13592367589989
 30
0.0000000000001137
 40
1.529198362727186
210
0.0
220
-1.0
230
0.0
  0
CIRCLE
  5
D1
  8
0
  6
CONTINUOUS
 62
     7
 10
45.3509465489
 20
-45.35094654889988
 30
0.0000000000001137
 40
1.529198362727172
210
0.0
220
-1.0
230
0.0
  0
CIRCLE
  5
D2
  8
0
  6
CONTINUOUS
 62
     7
 10
64.1359236759
 20
0.0000000000001137
 30
0.0000000000001137
 40
1.529198362727172
210
0.0
220
-1.0
230
0.0
  0
CIRCLE
  5
D3
  8
0
  6
CONTINUOUS
 62
     7
 10
45.3509465489
 20
45.35094654890011
 30
0.0000000000001137
 40
1.529198362727182
210
0.0
220
-1.0
230
0.0
  0
CIRCLE
  5
D4
  8
0
  6
CONTINUOUS
 62
     7
 10
0.0
 20
366.7892962391001
 30
0.0000000000001137
 40
8.745388841809756
210
0.0
220
-1.0
230
0.0
  0
CIRCLE
  5
D5
  8
0
  6
CONTINUOUS
 62
     7
 10
-259.3591986373
 20
259.3591986373001
 30
0.0000000000001137
 40
8.745388841809783
210
0.0
220
-1.0
230
0.0
  0
CIRCLE
  5
D6
  8
0
  6
CONTINUOUS
 62
     7
 10
-366.7892962391
 20
0.0000000000001137
 30
0.0000000000001137
 40
8.745388841809756
210
0.0
220
-1.0
230
0.0
  0
CIRCLE
  5
D7
  8
0
  6
CONTINUOUS
 62
     7
 10
-259.3591986373
 20
-259.3591986372999
 30
0.0000000000001137
 40
8.745388841809744
210
0.0
220
-1.0
230
0.0
  0
CIRCLE
  5
D8
  8
0
  6
CONTINUOUS
 62
     7
 10
0.0
 20
-366.7892962390999
 30
0.0000000000001137
 40
8.745388841809756
210
0.0
220
-1.0
230
0.0
  0
CIRCLE
  5
D9
  8
0
  6
CONTINUOUS
 62
     7
 10
259.3591986373
 20
-259.3591986372999
 30
0.0000000000001137
 40
8.745388841809744
210
0.0
220
-1.0
230
0.0
  0
CIRCLE
  5
DA
  8
0
  6
CONTINUOUS
 62
     7
 10
366.7892962391
 20
0.0000000000001137
 30
0.0000000000001137
 40
8.745388841809756
210
0.0
220
-1.0
230
0.0
  0
CIRCLE
  5
DB
  8
0
  6
CONTINUOUS
 62
     7
 10
259.3591986373
 20
259.3591986373001
 30
0.0000000000001137
 40
8.745388841809783
210
0.0
220
-1.0
230
0.0
  0
LINE
  5
DC
  8
0
  6
CONTINUOUS
 62
     7
 10
1482.0040351777
 20
-0.0000000000001137
 30
-1412.9595403906
 11
-1482.0040351777
 21
-0.0000000000001137
 31
1412.9595403907
  0
LINE
  5
DD
  8
0
  6
CONTINUOUS
 62
     7
 10
1412.9595403907
 20
-0.0000000000001137
 30
-1482.0040351778
 11
-1412.9595403907
 21
-0.0000000000001137
 31
1482.0040351777
  0
LINE
  5
DE
  8
0
  6
CONTINUOUS
 62
     7
 10
48.8218304675
 20
-0.0000000000001137
 30
-2047.0483755725
 11
-48.8218304675
 21
-0.0000000000001137
 31
2047.0483755725
  0
LINE
  5
DF
  8
0
  6
CONTINUOUS
 62
     7
 10
-48.8218304675
 20
-0.0000000000001137
 30
-2047.0483755725
 11
48.8218304675
 21
-0.0000000000001137
 31
2047.0483755725
  0
LINE
  5
E0
  8
0
  6
CONTINUOUS
 62
     7
 10
-1482.0040351777
 20
-0.0000000000001137
 30
-1412.9595403907
 11
1482.0040351778
 21
-0.0000000000001137
 31
1412.9595403907
  0
LINE
  5
E1
  8
0
  6
CONTINUOUS
 62
     7
 10
-1412.9595403907
 20
-0.0000000000001137
 30
-1482.0040351777
 11
1412.9595403907
 21
-0.0000000000001137
 31
1482.0040351778
  0
LINE
  5
E2
  8
0
  6
CONTINUOUS
 62
     7
 10
-2047.0483755725
 20
-0.0000000000001137
 30
-48.82183046759989
 11
2047.0483755725
 21
-0.0000000000001137
 31
48.82183046760012
  0
LINE
  5
E3
  8
0
  6
CONTINUOUS
 62
     7
 10
-2047.0483755725
 20
-0.0000000000001137
 30
48.82183046750011
 11
2047.0483755725
 21
-0.0000000000001137
 31
-48.82183046749989
  0
LINE
  5
E4
  8
0
  6
CONTINUOUS
 62
     7
 10
-1447.8934047547
 20
-0.0000000000001137
 30
-1447.8934047547
 11
1447.8934047547
 21
-0.0000000000001137
 31
1447.8934047547
  0
LINE
  5
E5
  8
0
  6
CONTINUOUS
 62
     7
 10
-1447.8934047547
 20
-0.0000000000001137
 30
1447.8934047547
 11
1447.8934047547
 21
-0.0000000000001137
 31
-1447.8934047547
  0
LINE
  5
E6
  8
0
  6
CONTINUOUS
 62
     7
 10
-842.4726408218
 20
-0.0000000000001137
 30
1866.2878857591
 11
842.4726408218
 21
-0.0000000000001137
 31
-1866.2878857591
  0
LINE
  5
E7
  8
0
  6
CONTINUOUS
 62
     7
 10
-2047.6304898746
 20
-0.0000000000001137
 30
0.0000000000001137
 11
2047.6304898746
 21
-0.0000000000001137
 31
0.0000000000001137
  0
LINE
  5
E8
  8
0
  6
CONTINUOUS
 62
     7
 10
0.0
 20
-0.0000000000001137
 30
-2047.6304898746
 11
0.0
 21
-0.0000000000001137
 31
2047.6304898746
  0
LINE
  5
E9
  8
0
  6
CONTINUOUS
 62
     7
 10
842.4726408218
 20
-0.0000000000001137
 30
1866.2878857591
 11
-842.4726408218
 21
-0.0000000000001137
 31
-1866.2878857591
  0
LINE
  5
EA
  8
0
  6
CONTINUOUS
 62
     7
 10
1866.2878857591
 20
-0.0000000000001137
 30
842.4726408218002
 11
-1866.2878857591
 21
-0.0000000000001137
 31
-842.4726408217999
  0
LINE
  5
EB
  8
0
  6
CONTINUOUS
 62
     7
 10
1866.2878857591
 20
-0.0000000000001137
 30
-842.4726408217999
 11
-1866.2878857591
 21
-0.0000000000001137
 31
842.4726408218002
  0
POINT
  5
EC
  8
0
  6
CONTINUOUS
 62
     7
 10
1.0
 20
-0.0000000000001137
 30
1.000000000000114
  0
POINT
  5
ED
  8
0
  6
CONTINUOUS
 62
     7
 10
1.0
 20
-0.0000000000001137
 30
-0.9999999999998863
  0
POINT
  5
EE
  8
0
  6
CONTINUOUS
 62
     7
 10
-1.0
 20
-0.0000000000001137
 30
1.000000000000114
  0
POINT
  5
EF
  8
0
  6
CONTINUOUS
 62
     7
 10
-1.0
 20
-0.0000000000001137
 30
-0.9999999999998863
  0
POINT
  5
F0
  8
0
  6
CONTINUOUS
 62
     7
 10
0.0
 20
-0.0000000000001137
 30
0.0000000000001137
  0
POINT
  5
F1
  8
0
  6
CONTINUOUS
 62
     7
 10
0.0
 20
-0.0000000000001137
 30
0.0000000000001137
  0
POINT
  5
F2
  8
0
  6
CONTINUOUS
 62
     7
 10
0.0
 20
-0.0000000000001137
 30
4.370980568100114
  0
POINT
  5
F3
  8
0
  6
CONTINUOUS
 62
     7
 10
-5.7189368331
 20
-0.0000000000001137
 30
5.718936833100114
  0
POINT
  5
F4
  8
0
  6
CONTINUOUS
 62
     7
 10
5.7189368331
 20
-0.0000000000001137
 30
5.718936833100114
  0
POINT
  5
F5
  8
0
  6
CONTINUOUS
 62
     7
 10
0.0
 20
-0.0000000000001137
 30
7.567593679000113
  0
POINT
  5
F6
  8
0
  6
CONTINUOUS
 62
     7
 10
0.0
 20
-0.0000000000001137
 30
24.99736176770011
  0
POINT
  5
F7
  8
0
  6
CONTINUOUS
 62
     7
 10
-32.7062385012
 20
-0.0000000000001137
 30
32.70623850120011
  0
POINT
  5
F8
  8
0
  6
CONTINUOUS
 62
     7
 10
0.0
 20
-0.0000000000001137
 30
1.960969118300114
  0
POINT
  5
F9
  8
0
  6
CONTINUOUS
 62
     7
 10
1.3866145612
 20
-0.0000000000001137
 30
1.386614561200114
  0
POINT
  5
FA
  8
0
  6
CONTINUOUS
 62
     7
 10
-1.3866145612
 20
-0.0000000000001137
 30
1.386614561200114
  0
POINT
  5
FB
  8
0
  6
CONTINUOUS
 62
     7
 10
32.7062385012
 20
-0.0000000000001137
 30
32.70623850120011
  0
POINT
  5
FC
  8
0
  6
CONTINUOUS
 62
     7
 10
0.0
 20
-0.0000000000001137
 30
43.27859022880011
  0
POINT
  5
FD
  8
0
  6
CONTINUOUS
 62
     7
 10
0.0
 20
-0.0000000000001137
 30
142.9583329443001
  0
POINT
  5
FE
  8
0
  6
CONTINUOUS
 62
     7
 10
-187.0449120374
 20
-0.0000000000001137
 30
187.0449120374001
  0
POINT
  5
FF
  8
0
  6
CONTINUOUS
 62
     7
 10
187.0449120374
 20
-0.0000000000001137
 30
187.0449120374001
  0
POINT
  5
100
  8
0
  6
CONTINUOUS
 62
     7
 10
0.0
 20
-0.0000000000001137
 30
247.5075237452001
  0
POINT
  5
101
  8
0
  6
CONTINUOUS
 62
     7
 10
0.0
 20
-0.0000000000001137
 30
817.5696758766001
  0
POINT
  5
102
  8
0
  6
CONTINUOUS
 62
     7
 10
-1069.6980368983
 20
-0.0000000000001137
 30
1069.6980368983
  0
POINT
  5
103
  8
0
  6
CONTINUOUS
 62
     7
 10
1069.6980368983
 20
-0.0000000000001137
 30
1069.6980368983
  0
POINT
  5
104
  8
0
  6
CONTINUOUS
 62
     7
 10
1069.6980368983
 20
-0.0000000000001137
 30
-1069.6980368983
  0
POINT
  5
105
  8
0
  6
CONTINUOUS
 62
     7
 10
-1069.6980368983
 20
-0.0000000000001137
 30
-1069.6980368983
  0
POINT
  5
106
  8
0
  6
CONTINUOUS
 62
     7
 10
0.0
 20
-0.0000000000001137
 30
-817.5696758765998
  0
POINT
  5
107
  8
0
  6
CONTINUOUS
 62
     7
 10
0.0
 20
-0.0000000000001137
 30
-247.5075237451999
  0
POINT
  5
108
  8
0
  6
CONTINUOUS
 62
     7
 10
187.0449120374
 20
-0.0000000000001137
 30
-187.0449120373999
  0
POINT
  5
109
  8
0
  6
CONTINUOUS
 62
     7
 10
-187.0449120374
 20
-0.0000000000001137
 30
-187.0449120373999
  0
POINT
  5
10A
  8
0
  6
CONTINUOUS
 62
     7
 10
0.0
 20
-0.0000000000001137
 30
-142.9583329442999
  0
POINT
  5
10B
  8
0
  6
CONTINUOUS
 62
     7
 10
0.0
 20
-0.0000000000001137
 30
-43.27859022879989
  0
POINT
  5
10C
  8
0
  6
CONTINUOUS
 62
     7
 10
32.7062385012
 20
-0.0000000000001137
 30
-32.70623850119988
  0
POINT
  5
10D
  8
0
  6
CONTINUOUS
 62
     7
 10
-32.7062385012
 20
-0.0000000000001137
 30
-32.70623850119988
  0
POINT
  5
10E
  8
0
  6
CONTINUOUS
 62
     7
 10
0.0
 20
-0.0000000000001137
 30
-24.99736176769989
  0
POINT
  5
10F
  8
0
  6
CONTINUOUS
 62
     7
 10
0.0
 20
-0.0000000000001137
 30
-7.567593678999886
  0
POINT
  5
110
  8
0
  6
CONTINUOUS
 62
     7
 10
5.7189368331
 20
-0.0000000000001137
 30
-5.718936833099886
  0
POINT
  5
111
  8
0
  6
CONTINUOUS
 62
     7
 10
-5.7189368331
 20
-0.0000000000001137
 30
-5.718936833099886
  0
POINT
  5
112
  8
0
  6
CONTINUOUS
 62
     7
 10
0.0
 20
-0.0000000000001137
 30
-4.370980568099887
  0
POINT
  5
113
  8
0
  6
CONTINUOUS
 62
     7
 10
1.3866145612
 20
-0.0000000000001137
 30
-1.386614561199886
  0
POINT
  5
114
  8
0
  6
CONTINUOUS
 62
     7
 10
0.0
 20
-0.0000000000001137
 30
-1.960969118299886
  0
POINT
  5
115
  8
0
  6
CONTINUOUS
 62
     7
 10
-1.3866145612
 20
-0.0000000000001137
 30
-1.386614561199886
  0
POINT
  5
116
  8
0
  6
CONTINUOUS
 62
     7
 10
7.567593679
 20
-0.0000000000001137
 30
0.0000000000001137
  0
POINT
  5
117
  8
0
  6
CONTINUOUS
 62
     7
 10
-7.567593679
 20
-0.0000000000001137
 30
0.0000000000001137
  0
POINT
  5
118
  8
0
  6
CONTINUOUS
 62
     7
 10
-43.2785902288
 20
-0.0000000000001137
 30
0.0000000000001137
  0
POINT
  5
119
  8
0
  6
CONTINUOUS
 62
     7
 10
43.2785902288
 20
-0.0000000000001137
 30
0.0000000000001137
  0
POINT
  5
11A
  8
0
  6
CONTINUOUS
 62
     7
 10
247.5075237452
 20
-0.0000000000001137
 30
0.0000000000001137
  0
POINT
  5
11B
  8
0
  6
CONTINUOUS
 62
     7
 10
-247.5075237452
 20
-0.0000000000001137
 30
0.0000000000001137
  0
POINT
  5
11C
  8
0
  6
CONTINUOUS
 62
     7
 10
817.5696758766
 20
-0.0000000000001137
 30
0.0000000000001137
  0
POINT
  5
11D
  8
0
  6
CONTINUOUS
 62
     7
 10
-817.5696758766
 20
-0.0000000000001137
 30
0.0000000000001137
  0
POINT
  5
11E
  8
0
  6
CONTINUOUS
 62
     7
 10
-142.9583329443
 20
-0.0000000000001137
 30
0.0000000000001137
  0
POINT
  5
11F
  8
0
  6
CONTINUOUS
 62
     7
 10
142.9583329443
 20
-0.0000000000001137
 30
0.0000000000001137
  0
POINT
  5
120
  8
0
  6
CONTINUOUS
 62
     7
 10
-24.9973617677
 20
-0.0000000000001137
 30
0.0000000000001137
  0
POINT
  5
121
  8
0
  6
CONTINUOUS
 62
     7
 10
24.9973617677
 20
-0.0000000000001137
 30
0.0000000000001137
  0
POINT
  5
122
  8
0
  6
CONTINUOUS
 62
     7
 10
-4.3709805681
 20
-0.0000000000001137
 30
0.0000000000001137
  0
POINT
  5
123
  8
0
  6
CONTINUOUS
 62
     7
 10
4.3709805681
 20
-0.0000000000001137
 30
0.0000000000001137
  0
POINT
  5
124
  8
0
  6
CONTINUOUS
 62
     7
 10
1.9609691183
 20
-0.0000000000001137
 30
0.0000000000001137
  0
POINT
  5
125
  8
0
  6
CONTINUOUS
 62
     7
 10
-1.9609691183
 20
-0.0000000000001137
 30
0.0000000000001137
  0
POINT
  5
126
  8
0
  6
CONTINUOUS
 62
     7
 10
0.0
 20
-0.0000000000001137
 30
0.0000000000001137
  0
POINT
  5
127
  8
0
  6
CONTINUOUS
 62
     7
 10
0.0
 20
-0.0000000000001137
 30
0.0000000000001137
  0
POINT
  5
128
  8
0
  6
CONTINUOUS
 62
     7
 10
0.0
 20
-0.0000000000001137
 30
0.0000000000001137
  0
POINT
  5
129
  8
0
  6
CONTINUOUS
 62
     7
 10
0.0
 20
-0.0000000000001137
 30
0.0000000000001137
  0
POINT
  5
12A
  8
0
  6
CONTINUOUS
 62
     7
 10
0.0
 20
-0.0000000000001137
 30
0.0000000000001137
  0
POINT
  5
12B
  8
0
  6
CONTINUOUS
 62
     7
 10
0.0
 20
-0.0000000000001137
 30
0.0000000000001137
  0
POINT
  5
12C
  8
0
  6
CONTINUOUS
 62
     7
 10
0.0
 20
-0.0000000000001137
 30
0.0000000000001137
  0
POINT
  5
12D
  8
0
  6
CONTINUOUS
 62
     7
 10
0.0
 20
-0.0000000000001137
 30
0.0000000000001137
  0
POINT
  5
12E
  8
0
  6
CONTINUOUS
 62
     7
 10
-1.0
 20
-0.0000000000001137
 30
1.000000000000114
  0
POINT
  5
12F
  8
0
  6
CONTINUOUS
 62
     7
 10
1.0
 20
-0.0000000000001137
 30
1.000000000000114
  0
POINT
  5
130
  8
0
  6
CONTINUOUS
 62
     7
 10
-1.0
 20
-0.0000000000001137
 30
-0.9999999999998863
  0
POINT
  5
131
  8
0
  6
CONTINUOUS
 62
     7
 10
1.0
 20
-0.0000000000001137
 30
-0.9999999999998863
  0
POINT
  5
132
  8
0
  6
CONTINUOUS
 62
     7
 10
-5.7189368331
 20
-0.0000000000001137
 30
-5.718936833099886
  0
POINT
  5
133
  8
0
  6
CONTINUOUS
 62
     7
 10
-5.7189368331
 20
-0.0000000000001137
 30
5.718936833100114
  0
POINT
  5
134
  8
0
  6
CONTINUOUS
 62
     7
 10
5.7189368331
 20
-0.0000000000001137
 30
5.718936833100114
  0
POINT
  5
135
  8
0
  6
CONTINUOUS
 62
     7
 10
5.7189368331
 20
-0.0000000000001137
 30
-5.718936833099886
  0
POINT
  5
136
  8
0
  6
CONTINUOUS
 62
     7
 10
-32.7062385012
 20
-0.0000000000001137
 30
-32.70623850119988
  0
POINT
  5
137
  8
0
  6
CONTINUOUS
 62
     7
 10
-32.7062385012
 20
-0.0000000000001137
 30
32.70623850120011
  0
POINT
  5
138
  8
0
  6
CONTINUOUS
 62
     7
 10
32.7062385012
 20
-0.0000000000001137
 30
32.70623850120011
  0
POINT
  5
139
  8
0
  6
CONTINUOUS
 62
     7
 10
32.7062385012
 20
-0.0000000000001137
 30
-32.70623850119988
  0
POINT
  5
13A
  8
0
  6
CONTINUOUS
 62
     7
 10
-187.0449120374
 20
-0.0000000000001137
 30
-187.0449120373999
  0
POINT
  5
13B
  8
0
  6
CONTINUOUS
 62
     7
 10
-187.0449120374
 20
-0.0000000000001137
 30
187.0449120374001
  0
POINT
  5
13C
  8
0
  6
CONTINUOUS
 62
     7
 10
187.0449120374
 20
-0.0000000000001137
 30
187.0449120374001
  0
POINT
  5
13D
  8
0
  6
CONTINUOUS
 62
     7
 10
187.0449120374
 20
-0.0000000000001137
 30
-187.0449120373999
  0
POINT
  5
13E
  8
0
  6
CONTINUOUS
 62
     7
 10
-1069.6980368983
 20
-0.0000000000001137
 30
-1069.6980368983
  0
POINT
  5
13F
  8
0
  6
CONTINUOUS
 62
     7
 10
-1069.6980368983
 20
-0.0000000000001137
 30
1069.6980368983
  0
POINT
  5
140
  8
0
  6
CONTINUOUS
 62
     7
 10
1069.6980368983
 20
-0.0000000000001137
 30
1069.6980368983
  0
POINT
  5
141
  8
0
  6
CONTINUOUS
 62
     7
 10
1069.6980368983
 20
-0.0000000000001137
 30
-1069.6980368983
  0
POINT
  5
142
  8
0
  6
CONTINUOUS
 62
     7
 10
0.0
 20
-0.0000000000001137
 30
11.21465851910011
  0
POINT
  5
143
  8
0
  6
CONTINUOUS
 62
     7
 10
-7.9299610876
 20
-0.0000000000001137
 30
7.929961087600113
  0
POINT
  5
144
  8
0
  6
CONTINUOUS
 62
     7
 10
-11.2146585191
 20
-0.0000000000001137
 30
0.0000000000001137
  0
POINT
  5
145
  8
0
  6
CONTINUOUS
 62
     7
 10
-7.9299610876
 20
-0.0000000000001137
 30
-7.929961087599886
  0
POINT
  5
146
  8
0
  6
CONTINUOUS
 62
     7
 10
0.0
 20
-0.0000000000001137
 30
-11.21465851909989
  0
POINT
  5
147
  8
0
  6
CONTINUOUS
 62
     7
 10
7.9299610876
 20
-0.0000000000001137
 30
-7.929961087599886
  0
POINT
  5
148
  8
0
  6
CONTINUOUS
 62
     7
 10
11.2146585191
 20
-0.0000000000001137
 30
0.0000000000001137
  0
POINT
  5
149
  8
0
  6
CONTINUOUS
 62
     7
 10
7.9299610876
 20
-0.0000000000001137
 30
7.929961087600113
  0
POINT
  5
14A
  8
0
  6
CONTINUOUS
 62
     7
 10
0.0
 20
-0.0000000000001137
 30
64.13592367590012
  0
POINT
  5
14B
  8
0
  6
CONTINUOUS
 62
     7
 10
-45.3509465489
 20
-0.0000000000001137
 30
45.35094654890011
  0
POINT
  5
14C
  8
0
  6
CONTINUOUS
 62
     7
 10
-64.1359236759
 20
-0.0000000000001137
 30
0.0000000000001137
  0
POINT
  5
14D
  8
0
  6
CONTINUOUS
 62
     7
 10
-45.3509465489
 20
-0.0000000000001137
 30
-45.35094654889988
  0
POINT
  5
14E
  8
0
  6
CONTINUOUS
 62
     7
 10
0.0
 20
-0.0000000000001137
 30
-64.13592367589989
  0
POINT
  5
14F
  8
0
  6
CONTINUOUS
 62
     7
 10
45.3509465489
 20
-0.0000000000001137
 30
-45.35094654889988
  0
POINT
  5
150
  8
0
  6
CONTINUOUS
 62
     7
 10
64.1359236759
 20
-0.0000000000001137
 30
0.0000000000001137
  0
POINT
  5
151
  8
0
  6
CONTINUOUS
 62
     7
 10
45.3509465489
 20
-0.0000000000001137
 30
45.35094654890011
  0
POINT
  5
152
  8
0
  6
CONTINUOUS
 62
     7
 10
0.0
 20
-0.0000000000001137
 30
366.7892962391001
  0
POINT
  5
153
  8
0
  6
CONTINUOUS
 62
     7
 10
-259.3591986373
 20
-0.0000000000001137
 30
259.3591986373001
  0
POINT
  5
154
  8
0
  6
CONTINUOUS
 62
     7
 10
-366.7892962391
 20
-0.0000000000001137
 30
0.0000000000001137
  0
POINT
  5
155
  8
0
  6
CONTINUOUS
 62
     7
 10
-259.3591986373
 20
-0.0000000000001137
 30
-259.3591986372999
  0
POINT
  5
156
  8
0
  6
CONTINUOUS
 62
     7
 10
0.0
 20
-0.0000000000001137
 30
-366.7892962390999
  0
POINT
  5
157
  8
0
  6
CONTINUOUS
 62
     7
 10
259.3591986373
 20
-0.0000000000001137
 30
-259.3591986372999
  0
POINT
  5
158
  8
0
  6
CONTINUOUS
 62
     7
 10
366.7892962391
 20
-0.0000000000001137
 30
0.0000000000001137
  0
POINT
  5
159
  8
0
  6
CONTINUOUS
 62
     7
 10
259.3591986373
 20
-0.0000000000001137
 30
259.3591986373001
  0
POINT
  5
15A
  8
0
  6
CONTINUOUS
 62
     7
 10
-1.0
 20
-0.0000000000001137
 30
-0.9999999999998863
  0
POINT
  5
15B
  8
0
  6
CONTINUOUS
 62
     7
 10
0.0
 20
-0.0000000000001137
 30
0.0000000000001137
  0
POINT
  5
15C
  8
0
  6
CONTINUOUS
 62
     7
 10
1.0
 20
-0.0000000000001137
 30
1.000000000000114
  0
POINT
  5
15D
  8
0
  6
CONTINUOUS
 62
     7
 10
1866.2878857591
 20
-0.0000000000001137
 30
-842.4726408217999
  0
POINT
  5
15E
  8
0
  6
CONTINUOUS
 62
     7
 10
-1447.8934047547
 20
-0.0000000000001137
 30
1447.8934047547
  0
POINT
  5
15F
  8
0
  6
CONTINUOUS
 62
     7
 10
1.0
 20
-0.0000000000001137
 30
-0.9999999999998863
  0
POINT
  5
160
  8
0
  6
CONTINUOUS
 62
     7
 10
842.4726408218
 20
-0.0000000000001137
 30
-1866.2878857591
  0
POINT
  5
161
  8
0
  6
CONTINUOUS
 62
     7
 10
-842.4726408218
 20
-0.0000000000001137
 30
1866.2878857591
  0
POINT
  5
162
  8
0
  6
CONTINUOUS
 62
     7
 10
-1866.2878857591
 20
-0.0000000000001137
 30
-842.4726408217999
  0
POINT
  5
163
  8
0
  6
CONTINUOUS
 62
     7
 10
1866.2878857591
 20
-0.0000000000001137
 30
842.4726408218002
  0
POINT
  5
164
  8
0
  6
CONTINUOUS
 62
     7
 10
-1447.8934047547
 20
-0.0000000000001137
 30
-1447.8934047547
  0
POINT
  5
165
  8
0
  6
CONTINUOUS
 62
     7
 10
-1.0
 20
-0.0000000000001137
 30
1.000000000000114
  0
POINT
  5
166
  8
0
  6
CONTINUOUS
 62
     7
 10
1447.8934047547
 20
-0.0000000000001137
 30
1447.8934047547
  0
POINT
  5
167
  8
0
  6
CONTINUOUS
 62
     7
 10
1069.6980368983
 20
-0.0000000000001137
 30
-1069.6980368983
  0
POINT
  5
168
  8
0
  6
CONTINUOUS
 62
     7
 10
0.0
 20
-0.0000000000001137
 30
4.370980568100114
  0
POINT
  5
169
  8
0
  6
CONTINUOUS
 62
     7
 10
-5.7189368331
 20
-0.0000000000001137
 30
5.718936833100114
  0
POINT
  5
16A
  8
0
  6
CONTINUOUS
 62
     7
 10
5.7189368331
 20
-0.0000000000001137
 30
5.718936833100114
  0
POINT
  5
16B
  8
0
  6
CONTINUOUS
 62
     7
 10
0.0
 20
-0.0000000000001137
 30
7.567593679000113
  0
POINT
  5
16C
  8
0
  6
CONTINUOUS
 62
     7
 10
0.0
 20
-0.0000000000001137
 30
24.99736176770011
  0
POINT
  5
16D
  8
0
  6
CONTINUOUS
 62
     7
 10
-32.7062385012
 20
-0.0000000000001137
 30
32.70623850120011
  0
POINT
  5
16E
  8
0
  6
CONTINUOUS
 62
     7
 10
32.7062385012
 20
-0.0000000000001137
 30
32.70623850120011
  0
POINT
  5
16F
  8
0
  6
CONTINUOUS
 62
     7
 10
-1482.0040351777
 20
-0.0000000000001137
 30
-1412.9595403907
  0
POINT
  5
170
  8
0
  6
CONTINUOUS
 62
     7
 10
0.0
 20
-0.0000000000001137
 30
43.27859022880011
  0
POINT
  5
171
  8
0
  6
CONTINUOUS
 62
     7
 10
1482.0040351778
 20
-0.0000000000001137
 30
1412.9595403907
  0
POINT
  5
172
  8
0
  6
CONTINUOUS
 62
     7
 10
0.0
 20
-0.0000000000001137
 30
142.9583329443001
  0
POINT
  5
173
  8
0
  6
CONTINUOUS
 62
     7
 10
1412.9595403907
 20
-0.0000000000001137
 30
-1482.0040351778
  0
POINT
  5
174
  8
0
  6
CONTINUOUS
 62
     7
 10
48.8218304675
 20
-0.0000000000001137
 30
-2047.0483755725
  0
POINT
  5
175
  8
0
  6
CONTINUOUS
 62
     7
 10
-187.0449120374
 20
-0.0000000000001137
 30
187.0449120374001
  0
POINT
  5
176
  8
0
  6
CONTINUOUS
 62
     7
 10
2047.0483755725
 20
-0.0000000000001137
 30
-48.82183046749989
  0
POINT
  5
177
  8
0
  6
CONTINUOUS
 62
     7
 10
0.0
 20
-0.0000000000001137
 30
0.0000000000001137
  0
POINT
  5
178
  8
0
  6
CONTINUOUS
 62
     7
 10
0.0
 20
-0.0000000000001137
 30
-2047.6304898746
  0
POINT
  5
179
  8
0
  6
CONTINUOUS
 62
     7
 10
-1412.9595403907
 20
-0.0000000000001137
 30
1482.0040351777
  0
POINT
  5
17A
  8
0
  6
CONTINUOUS
 62
     7
 10
0.0
 20
-0.0000000000001137
 30
1.960969118300114
  0
POINT
  5
17B
  8
0
  6
CONTINUOUS
 62
     7
 10
48.8218304675
 20
-0.0000000000001137
 30
2047.0483755725
  0
POINT
  5
17C
  8
0
  6
CONTINUOUS
 62
     7
 10
1.3866145612
 20
-0.0000000000001137
 30
1.386614561200114
  0
POINT
  5
17D
  8
0
  6
CONTINUOUS
 62
     7
 10
-2047.0483755725
 20
-0.0000000000001137
 30
48.82183046750011
  0
POINT
  5
17E
  8
0
  6
CONTINUOUS
 62
     7
 10
1412.9595403907
 20
-0.0000000000001137
 30
1482.0040351778
  0
POINT
  5
17F
  8
0
  6
CONTINUOUS
 62
     7
 10
-48.8218304675
 20
-0.0000000000001137
 30
-2047.0483755725
  0
POINT
  5
180
  8
0
  6
CONTINUOUS
 62
     7
 10
-1412.9595403907
 20
-0.0000000000001137
 30
-1482.0040351777
  0
POINT
  5
181
  8
0
  6
CONTINUOUS
 62
     7
 10
2047.0483755725
 20
-0.0000000000001137
 30
48.82183046760012
  0
POINT
  5
182
  8
0
  6
CONTINUOUS
 62
     7
 10
-2047.0483755725
 20
-0.0000000000001137
 30
-48.82183046759989
  0
POINT
  5
183
  8
0
  6
CONTINUOUS
 62
     7
 10
1447.8934047547
 20
-0.0000000000001137
 30
-1447.8934047547
  0
POINT
  5
184
  8
0
  6
CONTINUOUS
 62
     7
 10
-1482.0040351777
 20
-0.0000000000001137
 30
1412.9595403907
  0
POINT
  5
185
  8
0
  6
CONTINUOUS
 62
     7
 10
0.0
 20
-0.0000000000001137
 30
2047.6304898746
  0
POINT
  5
186
  8
0
  6
CONTINUOUS
 62
     7
 10
-842.4726408218
 20
-0.0000000000001137
 30
-1866.2878857591
  0
POINT
  5
187
  8
0
  6
CONTINUOUS
 62
     7
 10
842.4726408218
 20
-0.0000000000001137
 30
1866.2878857591
  0
POINT
  5
188
  8
0
  6
CONTINUOUS
 62
     7
 10
187.0449120374
 20
-0.0000000000001137
 30
187.0449120374001
  0
POINT
  5
189
  8
0
  6
CONTINUOUS
 62
     7
 10
0.0
 20
-0.0000000000001137
 30
247.5075237452001
  0
POINT
  5
18A
  8
0
  6
CONTINUOUS
 62
     7
 10
-1.3866145612
 20
-0.0000000000001137
 30
1.386614561200114
  0
POINT
  5
18B
  8
0
  6
CONTINUOUS
 62
     7
 10
0.0
 20
-0.0000000000001137
 30
817.5696758766001
  0
POINT
  5
18C
  8
0
  6
CONTINUOUS
 62
     7
 10
-1069.6980368983
 20
-0.0000000000001137
 30
1069.6980368983
  0
POINT
  5
18D
  8
0
  6
CONTINUOUS
 62
     7
 10
1069.6980368983
 20
-0.0000000000001137
 30
1069.6980368983
  0
POINT
  5
18E
  8
0
  6
CONTINUOUS
 62
     7
 10
-1069.6980368983
 20
-0.0000000000001137
 30
-1069.6980368983
  0
POINT
  5
18F
  8
0
  6
CONTINUOUS
 62
     7
 10
0.0
 20
-0.0000000000001137
 30
-817.5696758765998
  0
POINT
  5
190
  8
0
  6
CONTINUOUS
 62
     7
 10
0.0
 20
-0.0000000000001137
 30
-247.5075237451999
  0
POINT
  5
191
  8
0
  6
CONTINUOUS
 62
     7
 10
187.0449120374
 20
-0.0000000000001137
 30
-187.0449120373999
  0
POINT
  5
192
  8
0
  6
CONTINUOUS
 62
     7
 10
-187.0449120374
 20
-0.0000000000001137
 30
-187.0449120373999
  0
POINT
  5
193
  8
0
  6
CONTINUOUS
 62
     7
 10
0.0
 20
-0.0000000000001137
 30
-142.9583329442999
  0
POINT
  5
194
  8
0
  6
CONTINUOUS
 62
     7
 10
0.0
 20
-0.0000000000001137
 30
-43.27859022879989
  0
POINT
  5
195
  8
0
  6
CONTINUOUS
 62
     7
 10
32.7062385012
 20
-0.0000000000001137
 30
-32.70623850119988
  0
POINT
  5
196
  8
0
  6
CONTINUOUS
 62
     7
 10
-32.7062385012
 20
-0.0000000000001137
 30
-32.70623850119988
  0
POINT
  5
197
  8
0
  6
CONTINUOUS
 62
     7
 10
0.0
 20
-0.0000000000001137
 30
-24.99736176769989
  0
POINT
  5
198
  8
0
  6
CONTINUOUS
 62
     7
 10
0.0
 20
-0.0000000000001137
 30
-7.567593678999886
  0
POINT
  5
199
  8
0
  6
CONTINUOUS
 62
     7
 10
5.7189368331
 20
-0.0000000000001137
 30
-5.718936833099886
  0
POINT
  5
19A
  8
0
  6
CONTINUOUS
 62
     7
 10
-5.7189368331
 20
-0.0000000000001137
 30
-5.718936833099886
  0
POINT
  5
19B
  8
0
  6
CONTINUOUS
 62
     7
 10
0.0
 20
-0.0000000000001137
 30
-4.370980568099887
  0
POINT
  5
19C
  8
0
  6
CONTINUOUS
 62
     7
 10
1.3866145612
 20
-0.0000000000001137
 30
-1.386614561199886
  0
POINT
  5
19D
  8
0
  6
CONTINUOUS
 62
     7
 10
0.0
 20
-0.0000000000001137
 30
-1.960969118299886
  0
POINT
  5
19E
  8
0
  6
CONTINUOUS
 62
     7
 10
-1.3866145612
 20
-0.0000000000001137
 30
-1.386614561199886
  0
POINT
  5
19F
  8
0
  6
CONTINUOUS
 62
     7
 10
7.567593679
 20
-0.0000000000001137
 30
0.0000000000001137
  0
POINT
  5
1A0
  8
0
  6
CONTINUOUS
 62
     7
 10
-7.567593679
 20
-0.0000000000001137
 30
0.0000000000001137
  0
POINT
  5
1A1
  8
0
  6
CONTINUOUS
 62
     7
 10
-43.2785902288
 20
-0.0000000000001137
 30
0.0000000000001137
  0
POINT
  5
1A2
  8
0
  6
CONTINUOUS
 62
     7
 10
43.2785902288
 20
-0.0000000000001137
 30
0.0000000000001137
  0
POINT
  5
1A3
  8
0
  6
CONTINUOUS
 62
     7
 10
247.5075237452
 20
-0.0000000000001137
 30
0.0000000000001137
  0
POINT
  5
1A4
  8
0
  6
CONTINUOUS
 62
     7
 10
-247.5075237452
 20
-0.0000000000001137
 30
0.0000000000001137
  0
POINT
  5
1A5
  8
0
  6
CONTINUOUS
 62
     7
 10
817.5696758766
 20
-0.0000000000001137
 30
0.0000000000001137
  0
POINT
  5
1A6
  8
0
  6
CONTINUOUS
 62
     7
 10
-817.5696758766
 20
-0.0000000000001137
 30
0.0000000000001137
  0
POINT
  5
1A7
  8
0
  6
CONTINUOUS
 62
     7
 10
-142.9583329443
 20
-0.0000000000001137
 30
0.0000000000001137
  0
POINT
  5
1A8
  8
0
  6
CONTINUOUS
 62
     7
 10
142.9583329443
 20
-0.0000000000001137
 30
0.0000000000001137
  0
POINT
  5
1A9
  8
0
  6
CONTINUOUS
 62
     7
 10
-24.9973617677
 20
-0.0000000000001137
 30
0.0000000000001137
  0
POINT
  5
1AA
  8
0
  6
CONTINUOUS
 62
     7
 10
24.9973617677
 20
-0.0000000000001137
 30
0.0000000000001137
  0
POINT
  5
1AB
  8
0
  6
CONTINUOUS
 62
     7
 10
-4.3709805681
 20
-0.0000000000001137
 30
0.0000000000001137
  0
POINT
  5
1AC
  8
0
  6
CONTINUOUS
 62
     7
 10
4.3709805681
 20
-0.0000000000001137
 30
0.0000000000001137
  0
POINT
  5
1AD
  8
0
  6
CONTINUOUS
 62
     7
 10
1.9609691183
 20
-0.0000000000001137
 30
0.0000000000001137
  0
POINT
  5
1AE
  8
0
  6
CONTINUOUS
 62
     7
 10
-1.9609691183
 20
-0.0000000000001137
 30
0.0000000000001137
  0
POINT
  5
1AF
  8
0
  6
CONTINUOUS
 62
     7
 10
-1.0
 20
-0.0000000000001137
 30
1.000000000000114
  0
POINT
  5
1B0
  8
0
  6
CONTINUOUS
 62
     7
 10
-2047.6304898746
 20
-0.0000000000001137
 30
0.0000000000001137
  0
POINT
  5
1B1
  8
0
  6
CONTINUOUS
 62
     7
 10
-1.0
 20
-0.0000000000001137
 30
-0.9999999999998863
  0
POINT
  5
1B2
  8
0
  6
CONTINUOUS
 62
     7
 10
-5.7189368331
 20
-0.0000000000001137
 30
-5.718936833099886
  0
POINT
  5
1B3
  8
0
  6
CONTINUOUS
 62
     7
 10
1.0
 20
-0.0000000000001137
 30
-0.9999999999998863
  0
POINT
  5
1B4
  8
0
  6
CONTINUOUS
 62
     7
 10
-5.7189368331
 20
-0.0000000000001137
 30
5.718936833100114
  0
POINT
  5
1B5
  8
0
  6
CONTINUOUS
 62
     7
 10
5.7189368331
 20
-0.0000000000001137
 30
5.718936833100114
  0
POINT
  5
1B6
  8
0
  6
CONTINUOUS
 62
     7
 10
5.7189368331
 20
-0.0000000000001137
 30
-5.718936833099886
  0
POINT
  5
1B7
  8
0
  6
CONTINUOUS
 62
     7
 10
-32.7062385012
 20
-0.0000000000001137
 30
-32.70623850119988
  0
POINT
  5
1B8
  8
0
  6
CONTINUOUS
 62
     7
 10
-32.7062385012
 20
-0.0000000000001137
 30
32.70623850120011
  0
POINT
  5
1B9
  8
0
  6
CONTINUOUS
 62
     7
 10
32.7062385012
 20
-0.0000000000001137
 30
32.70623850120011
  0
POINT
  5
1BA
  8
0
  6
CONTINUOUS
 62
     7
 10
32.7062385012
 20
-0.0000000000001137
 30
-32.70623850119988
  0
POINT
  5
1BB
  8
0
  6
CONTINUOUS
 62
     7
 10
-187.0449120374
 20
-0.0000000000001137
 30
-187.0449120373999
  0
POINT
  5
1BC
  8
0
  6
CONTINUOUS
 62
     7
 10
-187.0449120374
 20
-0.0000000000001137
 30
187.0449120374001
  0
POINT
  5
1BD
  8
0
  6
CONTINUOUS
 62
     7
 10
187.0449120374
 20
-0.0000000000001137
 30
187.0449120374001
  0
POINT
  5
1BE
  8
0
  6
CONTINUOUS
 62
     7
 10
187.0449120374
 20
-0.0000000000001137
 30
-187.0449120373999
  0
POINT
  5
1BF
  8
0
  6
CONTINUOUS
 62
     7
 10
-1069.6980368983
 20
-0.0000000000001137
 30
-1069.6980368983
  0
POINT
  5
1C0
  8
0
  6
CONTINUOUS
 62
     7
 10
-1069.6980368983
 20
-0.0000000000001137
 30
1069.6980368983
  0
POINT
  5
1C1
  8
0
  6
CONTINUOUS
 62
     7
 10
1069.6980368983
 20
-0.0000000000001137
 30
1069.6980368983
  0
POINT
  5
1C2
  8
0
  6
CONTINUOUS
 62
     7
 10
1069.6980368983
 20
-0.0000000000001137
 30
-1069.6980368983
  0
POINT
  5
1C3
  8
0
  6
CONTINUOUS
 62
     7
 10
2047.6304898746
 20
-0.0000000000001137
 30
0.0000000000001137
  0
POINT
  5
1C4
  8
0
  6
CONTINUOUS
 62
     7
 10
-1866.2878857591
 20
-0.0000000000001137
 30
842.4726408218002
  0
POINT
  5
1C5
  8
0
  6
CONTINUOUS
 62
     7
 10
1482.0040351777
 20
-0.0000000000001137
 30
-1412.9595403906
  0
POINT
  5
1C6
  8
0
  6
CONTINUOUS
 62
     7
 10
-48.8218304675
 20
-0.0000000000001137
 30
2047.0483755725
  0
POINT
  5
1C7
  8
0
  6
CONTINUOUS
 62
     7
 10
0.0
 20
-0.0000000000001137
 30
11.21465851910011
  0
POINT
  5
1C8
  8
0
  6
CONTINUOUS
 62
     7
 10
0.0
 20
-0.0000000000001137
 30
64.13592367590012
  0
POINT
  5
1C9
  8
0
  6
CONTINUOUS
 62
     7
 10
-7.9299610876
 20
-0.0000000000001137
 30
7.929961087600113
  0
POINT
  5
1CA
  8
0
  6
CONTINUOUS
 62
     7
 10
-11.2146585191
 20
-0.0000000000001137
 30
0.0000000000001137
  0
POINT
  5
1CB
  8
0
  6
CONTINUOUS
 62
     7
 10
-7.9299610876
 20
-0.0000000000001137
 30
-7.929961087599886
  0
POINT
  5
1CC
  8
0
  6
CONTINUOUS
 62
     7
 10
0.0
 20
-0.0000000000001137
 30
-11.21465851909989
  0
POINT
  5
1CD
  8
0
  6
CONTINUOUS
 62
     7
 10
7.9299610876
 20
-0.0000000000001137
 30
-7.929961087599886
  0
POINT
  5
1CE
  8
0
  6
CONTINUOUS
 62
     7
 10
11.2146585191
 20
-0.0000000000001137
 30
0.0000000000001137
  0
POINT
  5
1CF
  8
0
  6
CONTINUOUS
 62
     7
 10
7.9299610876
 20
-0.0000000000001137
 30
7.929961087600113
  0
POINT
  5
1D0
  8
0
  6
CONTINUOUS
 62
     7
 10
0.0
 20
-0.0000000000001137
 30
0.0000000000001137
  0
POINT
  5
1D1
  8
0
  6
CONTINUOUS
 62
     7
 10
0.0
 20
-0.0000000000001137
 30
366.7892962391001
  0
POINT
  5
1D2
  8
0
  6
CONTINUOUS
 62
     7
 10
-45.3509465489
 20
-0.0000000000001137
 30
45.35094654890011
  0
POINT
  5
1D3
  8
0
  6
CONTINUOUS
 62
     7
 10
-64.1359236759
 20
-0.0000000000001137
 30
0.0000000000001137
  0
POINT
  5
1D4
  8
0
  6
CONTINUOUS
 62
     7
 10
-45.3509465489
 20
-0.0000000000001137
 30
-45.35094654889988
  0
POINT
  5
1D5
  8
0
  6
CONTINUOUS
 62
     7
 10
0.0
 20
-0.0000000000001137
 30
-64.13592367589989
  0
POINT
  5
1D6
  8
0
  6
CONTINUOUS
 62
     7
 10
45.3509465489
 20
-0.0000000000001137
 30
-45.35094654889988
  0
POINT
  5
1D7
  8
0
  6
CONTINUOUS
 62
     7
 10
64.1359236759
 20
-0.0000000000001137
 30
0.0000000000001137
  0
POINT
  5
1D8
  8
0
  6
CONTINUOUS
 62
     7
 10
45.3509465489
 20
-0.0000000000001137
 30
45.35094654890011
  0
POINT
  5
1D9
  8
0
  6
CONTINUOUS
 62
     7
 10
0.0
 20
-0.0000000000001137
 30
0.0000000000001137
  0
POINT
  5
1DA
  8
0
  6
CONTINUOUS
 62
     7
 10
-259.3591986373
 20
-0.0000000000001137
 30
259.3591986373001
  0
POINT
  5
1DB
  8
0
  6
CONTINUOUS
 62
     7
 10
-366.7892962391
 20
-0.0000000000001137
 30
0.0000000000001137
  0
POINT
  5
1DC
  8
0
  6
CONTINUOUS
 62
     7
 10
-259.3591986373
 20
-0.0000000000001137
 30
-259.3591986372999
  0
POINT
  5
1DD
  8
0
  6
CONTINUOUS
 62
     7
 10
0.0
 20
-0.0000000000001137
 30
-366.7892962390999
  0
POINT
  5
1DE
  8
0
  6
CONTINUOUS
 62
     7
 10
259.3591986373
 20
-0.0000000000001137
 30
-259.3591986372999
  0
POINT
  5
1DF
  8
0
  6
CONTINUOUS
 62
     7
 10
366.7892962391
 20
-0.0000000000001137
 30
0.0000000000001137
  0
POINT
  5
1E0
  8
0
  6
CONTINUOUS
 62
     7
 10
259.3591986373
 20
-0.0000000000001137
 30
259.3591986373001
  0
POINT
  5
1E1
  8
0
  6
CONTINUOUS
 62
     7
 10
0.0
 20
-0.0000000000001137
 30
0.0000000000001137
  0
ENDSEC
  0
EOF
