  0
SECTION
  2
HEADER
  9
$ACADVER
  1
AC1009
  9
$DWGCODEPAGE
  3
ansi_1252
  9
$INSBASE
 10
0.0
 20
0.0
 30
0.0
  9
$EXTMIN
 10
-0.1502657225717758
 20
-0.0034413417505996
 30
0.0
  9
$EXTMAX
 10
1.150265722571783
 20
1.003441341750595
 30
0.0
  9
$LIMMIN
 10
0.0
 20
0.0
  9
$LIMMAX
 10
12.0
 20
9.0
  9
$ORTHOMODE
 70
     0
  9
$REGENMODE
 70
     1
  9
$FILLMODE
 70
     1
  9
$QTEXTMODE
 70
     0
  9
$MIRRTEXT
 70
     1
  9
$DRAGMODE
 70
     2
  9
$LTSCALE
 40
1.0
  9
$OSMODE
 70
    37
  9
$ATTMODE
 70
     1
  9
$TEXTSIZE
 40
0.2
  9
$TRACEWID
 40
0.05
  9
$TEXTSTYLE
  7
STANDARD
  9
$CLAYER
  8
0
  9
$CELTYPE
  6
BYLAYER
  9
$CECOLOR
 62
   256
  9
$DIMSCALE
 40
1.0
  9
$DIMASZ
 40
0.18
  9
$DIMEXO
 40
0.0625
  9
$DIMDLI
 40
0.38
  9
$DIMRND
 40
0.0
  9
$DIMDLE
 40
0.0
  9
$DIMEXE
 40
0.18
  9
$DIMTP
 40
0.0
  9
$DIMTM
 40
0.0
  9
$DIMTXT
 40
0.18
  9
$DIMCEN
 40
0.09
  9
$DIMTSZ
 40
0.0
  9
$DIMTOL
 70
     0
  9
$DIMLIM
 70
     0
  9
$DIMTIH
 70
     1
  9
$DIMTOH
 70
     1
  9
$DIMSE1
 70
     0
  9
$DIMSE2
 70
     0
  9
$DIMTAD
 70
     0
  9
$DIMZIN
 70
     0
  9
$DIMBLK
  1

  9
$DIMASO
 70
     1
  9
$DIMSHO
 70
     1
  9
$DIMPOST
  1

  9
$DIMAPOST
  1

  9
$DIMALT
 70
     0
  9
$DIMALTD
 70
     2
  9
$DIMALTF
 40
25.4
  9
$DIMLFAC
 40
1.0
  9
$DIMTOFL
 70
     0
  9
$DIMTVP
 40
0.0
  9
$DIMTIX
 70
     0
  9
$DIMSOXD
 70
     0
  9
$DIMSAH
 70
     0
  9
$DIMBLK1
  1

  9
$DIMBLK2
  1

  9
$DIMSTYLE
  2
STANDARD
  9
$DIMCLRD
 70
     0
  9
$DIMCLRE
 70
     0
  9
$DIMCLRT
 70
     0
  9
$DIMTFAC
 40
1.0
  9
$DIMGAP
 40
0.09
  9
$LUNITS
 70
     2
  9
$LUPREC
 70
     3
  9
$SKETCHINC
 40
0.1
  9
$FILLETRAD
 40
0.5
  9
$AUNITS
 70
     0
  9
$AUPREC
 70
     0
  9
$MENU
  1
.
  9
$ELEVATION
 40
0.0
  9
$PELEVATION
 40
0.0
  9
$THICKNESS
 40
0.0
  9
$LIMCHECK
 70
     0
  9
$CHAMFERA
 40
0.0
  9
$CHAMFERB
 40
0.0
  9
$SKPOLY
 70
     0
  9
$TDCREATE
 40
2459356.794715405
  9
$TDUPDATE
 40
2459356.794777697
  9
$TDINDWG
 40
0.0000000116
  9
$TDUSRTIMER
 40
0.0000000116
  9
$USRTIMER
 70
     1
  9
$ANGBASE
 50
0.0
  9
$ANGDIR
 70
     0
  9
$PDMODE
 70
     0
  9
$PDSIZE
 40
0.0
  9
$PLINEWID
 40
0.0
  9
$COORDS
 70
     1
  9
$SPLFRAME
 70
     0
  9
$SPLINETYPE
 70
     6
  9
$SPLINESEGS
 70
     8
  9
$ATTDIA
 70
     0
  9
$ATTREQ
 70
     1
  9
$HANDLING
 70
     1
  9
$HANDSEED
  5
B4
  9
$SURFTAB1
 70
     6
  9
$SURFTAB2
 70
     6
  9
$SURFTYPE
 70
     6
  9
$SURFU
 70
     6
  9
$SURFV
 70
     6
  9
$UCSNAME
  2

  9
$UCSORG
 10
0.0
 20
0.0
 30
0.0
  9
$UCSXDIR
 10
1.0
 20
0.0
 30
0.0
  9
$UCSYDIR
 10
0.0
 20
1.0
 30
0.0
  9
$PUCSNAME
  2

  9
$PUCSORG
 10
0.0
 20
0.0
 30
0.0
  9
$PUCSXDIR
 10
1.0
 20
0.0
 30
0.0
  9
$PUCSYDIR
 10
0.0
 20
1.0
 30
0.0
  9
$USERI1
 70
     0
  9
$USERI2
 70
     0
  9
$USERI3
 70
     0
  9
$USERI4
 70
     0
  9
$USERI5
 70
     0
  9
$USERR1
 40
0.0
  9
$USERR2
 40
0.0
  9
$USERR3
 40
0.0
  9
$USERR4
 40
0.0
  9
$USERR5
 40
0.0
  9
$WORLDVIEW
 70
     1
  9
$SHADEDGE
 70
     3
  9
$SHADEDIF
 70
    70
  9
$TILEMODE
 70
     1
  9
$MAXACTVP
 70
    64
  9
$PLIMCHECK
 70
     0
  9
$PEXTMIN
 10
1.000000000000000E+20
 20
1.000000000000000E+20
 30
1.000000000000000E+20
  9
$PEXTMAX
 10
-1.000000000000000E+20
 20
-1.000000000000000E+20
 30
-1.000000000000000E+20
  9
$PLIMMIN
 10
0.0
 20
0.0
  9
$PLIMMAX
 10
12.0
 20
9.0
  9
$UNITMODE
 70
     0
  9
$VISRETAIN
 70
     1
  9
$PLINEGEN
 70
     0
  9
$PSLTSCALE
 70
     1
  0
ENDSEC
  0
SECTION
  2
TABLES
  0
TABLE
  2
VPORT
 70
     1
  0
VPORT
  2
*ACTIVE
 70
     0
 10
0.0
 20
0.0
 11
1.0
 21
1.0
 12
0.5000000000000036
 22
0.4999999999999977
 13
0.0
 23
0.0
 14
0.5
 24
0.5
 15
0.5
 25
0.5
 16
0.0
 26
0.0
 36
1.0
 17
0.0
 27
0.0
 37
0.0
 40
1.027020337171219
 41
1.291641485601153
 42
50.0
 43
0.0
 44
0.0
 50
0.0
 51
0.0
 71
     0
 72
   100
 73
     1
 74
     3
 75
     0
 76
     0
 77
     0
 78
     0
  0
ENDTAB
  0
TABLE
  2
LTYPE
 70
     1
  0
LTYPE
  2
CONTINUOUS
 70
     0
  3
Solid line
 72
    65
 73
     0
 40
0.0
  0
ENDTAB
  0
TABLE
  2
LAYER
 70
     2
  0
LAYER
  2
0
 70
     0
 62
     7
  6
CONTINUOUS
  0
LAYER
  2
C-ROAD-SPIR
 70
     0
 62
    92
  6
CONTINUOUS
  0
ENDTAB
  0
TABLE
  2
STYLE
 70
     1
  0
STYLE
  2
STANDARD
 70
     0
 40
0.0
 41
1.0
 50
0.0
 71
     0
 42
0.2
  3
txt
  4

  0
ENDTAB
  0
TABLE
  2
VIEW
 70
     0
  0
ENDTAB
  0
TABLE
  2
UCS
 70
     0
  0
ENDTAB
  0
TABLE
  2
APPID
 70
     1
  0
APPID
  2
ACAD
 70
     0
  0
ENDTAB
  0
TABLE
  2
DIMSTYLE
 70
     1
  0
DIMSTYLE
  2
STANDARD
 70
     0
  3

  4

  5

  6

  7

 40
1.0
 41
0.18
 42
0.0625
 43
0.38
 44
0.18
 45
0.0
 46
0.0
 47
0.0
 48
0.0
140
0.18
141
0.09
142
0.0
143
25.4
144
1.0
145
0.0
146
1.0
147
0.09
 71
     0
 72
     0
 73
     1
 74
     1
 75
     0
 76
     0
 77
     0
 78
     0
170
     0
171
     2
172
     0
173
     0
174
     0
175
     0
176
     0
177
     0
178
     0
  0
ENDTAB
  0
ENDSEC
  0
SECTION
  2
BLOCKS
  0
BLOCK
  8
0
  2
$MODEL_SPACE
 70
     0
 10
0.0
 20
0.0
 30
0.0
  3
$MODEL_SPACE
  1

  0
ENDBLK
  5
21
  8
0
  0
BLOCK
 67
     1
  8
0
  2
$PAPER_SPACE
 70
     0
 10
0.0
 20
0.0
 30
0.0
  3
$PAPER_SPACE
  1

  0
ENDBLK
  5
1D
 67
     1
  8
0
  0
ENDSEC
  0
SECTION
  2
ENTITIES
  0
LINE
  5
6F
  8
C-ROAD-SPIR
  6
CONTINUOUS
 62
    92
 10
-0.1254725539422783
 20
0.033745136909545
 30
0.0
 11
-0.1502657225717758
 21
0.0501995680185261
 31
0.0
  0
LINE
  5
70
  8
C-ROAD-SPIR
  6
CONTINUOUS
 62
    92
 10
-0.0989506660559107
 20
0.0202505205932391
 30
0.0
 11
-0.1254725539422783
 21
0.033745136909545
 31
0.0
  0
LINE
  5
71
  8
C-ROAD-SPIR
  6
CONTINUOUS
 62
    92
 10
-0.0710918731498132
 20
0.0097879073101899
 30
0.0
 11
-0.0989506660559107
 21
0.0202505205932391
 31
0.0
  0
LINE
  5
72
  8
C-ROAD-SPIR
  6
CONTINUOUS
 62
    92
 10
-0.0422698244306022
 20
0.0023764776650932
 30
0.0
 11
-0.0710918731498132
 21
0.0097879073101899
 31
0.0
  0
LINE
  5
73
  8
C-ROAD-SPIR
  6
CONTINUOUS
 62
    92
 10
-0.0128343212619275
 20
-0.002010989789654
 30
0.0
 11
-0.0422698244306022
 21
0.0023764776650932
 31
0.0
  0
LINE
  5
74
  8
C-ROAD-SPIR
  6
CONTINUOUS
 62
    92
 10
0.016892931135532
 20
-0.0034413417505996
 30
0.0
 11
-0.0128343212619275
 21
-0.002010989789654
 31
0.0
  0
LINE
  5
75
  8
C-ROAD-SPIR
  6
CONTINUOUS
 62
    92
 10
0.046621261089659
 20
-0.002014329450655
 30
0.0
 11
0.016892931135532
 21
-0.0034413417505996
 31
0.0
  0
LINE
  5
76
  8
C-ROAD-SPIR
  6
CONTINUOUS
 62
    92
 10
0.0760928007865117
 20
0.0021438727314019
 30
0.0
 11
0.046621261089659
 21
-0.002014329450655
 31
0.0
  0
LINE
  5
77
  8
C-ROAD-SPIR
  6
CONTINUOUS
 62
    92
 10
0.1050832441401729
 20
0.0088867679351898
 30
0.0
 11
0.0760928007865117
 21
0.0021438727314019
 31
0.0
  0
LINE
  5
78
  8
C-ROAD-SPIR
  6
CONTINUOUS
 62
    92
 10
0.1334017499808049
 20
0.018053153731929
 30
0.0
 11
0.1050832441401729
 21
0.0088867679351898
 31
0.0
  0
LINE
  5
79
  8
C-ROAD-SPIR
  6
CONTINUOUS
 62
    92
 10
0.1608901452108291
 20
0.0294721864188704
 30
0.0
 11
0.1334017499808049
 21
0.018053153731929
 31
0.0
  0
LINE
  5
7A
  8
C-ROAD-SPIR
  6
CONTINUOUS
 62
    92
 10
0.1874215747194263
 20
0.0429678533446454
 30
0.0
 11
0.1608901452108291
 21
0.0294721864188704
 31
0.0
  0
LINE
  5
7B
  8
C-ROAD-SPIR
  6
CONTINUOUS
 62
    92
 10
0.2128987335579014
 20
0.0583628386666283
 30
0.0
 11
0.1874215747194263
 21
0.0429678533446454
 31
0.0
  0
LINE
  5
7C
  8
C-ROAD-SPIR
  6
CONTINUOUS
 62
    92
 10
0.2372518033239915
 20
0.0754817880274102
 30
0.0
 11
0.2128987335579014
 21
0.0583628386666283
 31
0.0
  0
LINE
  5
7D
  8
C-ROAD-SPIR
  6
CONTINUOUS
 62
    92
 10
0.2604361998672113
 20
0.0941539933270178
 30
0.0
 11
0.2372518033239915
 21
0.0754817880274102
 31
0.0
  0
LINE
  5
7E
  8
C-ROAD-SPIR
  6
CONTINUOUS
 62
    92
 10
0.2824302241178027
 20
0.1142155304454883
 30
0.0
 11
0.2604361998672113
 21
0.0941539933270178
 31
0.0
  0
LINE
  5
7F
  8
C-ROAD-SPIR
  6
CONTINUOUS
 62
    92
 10
0.3032326926968045
 20
0.1355108908933583
 30
0.0
 11
0.2824302241178027
 21
0.1142155304454883
 31
0.0
  0
LINE
  5
80
  8
C-ROAD-SPIR
  6
CONTINUOUS
 62
    92
 10
0.3228606104655957
 20
0.1578941534270468
 30
0.0
 11
0.3032326926968045
 21
0.1355108908933583
 31
0.0
  0
LINE
  5
81
  8
C-ROAD-SPIR
  6
CONTINUOUS
 62
    92
 10
0.3413469336621677
 20
0.1812297441596932
 30
0.0
 11
0.3228606104655957
 21
0.1578941534270468
 31
0.0
  0
LINE
  5
82
  8
C-ROAD-SPIR
  6
CONTINUOUS
 62
    92
 10
0.3587384599705574
 20
0.2053928341078352
 30
0.0
 11
0.3413469336621677
 21
0.1812297441596932
 31
0.0
  0
LINE
  5
83
  8
C-ROAD-SPIR
  6
CONTINUOUS
 62
    92
 10
0.3750938709014084
 20
0.2302694218913905
 30
0.0
 11
0.3587384599705574
 21
0.2053928341078352
 31
0.0
  0
LINE
  5
84
  8
C-ROAD-SPIR
  6
CONTINUOUS
 62
    92
 10
0.3904819422669371
 20
0.2557561468587158
 30
0.0
 11
0.3750938709014084
 21
0.2302694218913905
 31
0.0
  0
LINE
  5
85
  8
C-ROAD-SPIR
  6
CONTINUOUS
 62
    92
 10
0.4049799302913618
 20
0.2817598746033445
 30
0.0
 11
0.3904819422669371
 21
0.2557561468587158
 31
0.0
  0
LINE
  5
86
  8
C-ROAD-SPIR
  6
CONTINUOUS
 62
    92
 10
0.4186721339405498
 20
0.3081970929890106
 30
0.0
 11
0.4049799302913618
 21
0.2817598746033445
 31
0.0
  0
LINE
  5
87
  8
C-ROAD-SPIR
  6
CONTINUOUS
 62
    92
 10
0.4316486282826793
 20
0.3349931526714353
 30
0.0
 11
0.4186721339405498
 21
0.3081970929890106
 31
0.0
  0
LINE
  5
88
  8
C-ROAD-SPIR
  6
CONTINUOUS
 62
    92
 10
0.4440041589857933
 20
0.3620813819204456
 30
0.0
 11
0.4316486282826793
 21
0.3349931526714353
 31
0.0
  0
LINE
  5
89
  8
C-ROAD-SPIR
  6
CONTINUOUS
 62
    92
 10
0.4558371842894149
 20
0.3894021014843653
 30
0.0
 11
0.4440041589857933
 21
0.3620813819204456
 31
0.0
  0
LINE
  5
8A
  8
C-ROAD-SPIR
  6
CONTINUOUS
 62
    92
 10
0.4672490478257931
 20
0.4169015614436077
 30
0.0
 11
0.4558371842894149
 21
0.3894021014843653
 31
0.0
  0
LINE
  5
8B
  8
C-ROAD-SPIR
  6
CONTINUOUS
 62
    92
 10
0.4783432633871489
 20
0.4445308185837919
 30
0.0
 11
0.4672490478257931
 21
0.4169015614436077
 31
0.0
  0
LINE
  5
8C
  8
C-ROAD-SPIR
  6
CONTINUOUS
 62
    92
 10
0.4892248910242027
 20
0.4722445698655735
 30
0.0
 11
0.4783432633871489
 21
0.4445308185837919
 31
0.0
  0
LINE
  5
8D
  8
C-ROAD-SPIR
  6
CONTINUOUS
 62
    92
 10
0.4999999826183739
 20
0.4999999551418302
 30
0.0
 11
0.4892248910242027
 21
0.4722445698655735
 31
0.0
  0
LINE
  5
8E
  8
C-ROAD-SPIR
  6
CONTINUOUS
 62
    92
 10
0.5107751089757989
 20
0.5277554301344228
 30
0.0
 11
0.5000000173816277
 21
0.5000000448581658
 31
0.0
  0
LINE
  5
8F
  8
C-ROAD-SPIR
  6
CONTINUOUS
 62
    92
 10
0.521656736612853
 20
0.5554691814162045
 30
0.0
 11
0.5107751089757989
 21
0.5277554301344228
 31
0.0
  0
LINE
  5
90
  8
C-ROAD-SPIR
  6
CONTINUOUS
 62
    92
 10
0.5327509521742086
 20
0.583098438556389
 30
0.0
 11
0.521656736612853
 21
0.5554691814162045
 31
0.0
  0
LINE
  5
91
  8
C-ROAD-SPIR
  6
CONTINUOUS
 62
    92
 10
0.5441628157105871
 20
0.6105978985156316
 30
0.0
 11
0.5327509521742086
 21
0.583098438556389
 31
0.0
  0
LINE
  5
92
  8
C-ROAD-SPIR
  6
CONTINUOUS
 62
    92
 10
0.5559958410142088
 20
0.6379186180795515
 30
0.0
 11
0.5441628157105871
 21
0.6105978985156316
 31
0.0
  0
LINE
  5
93
  8
C-ROAD-SPIR
  6
CONTINUOUS
 62
    92
 10
0.5683513717173229
 20
0.6650068473285621
 30
0.0
 11
0.5559958410142088
 21
0.6379186180795515
 31
0.0
  0
LINE
  5
94
  8
C-ROAD-SPIR
  6
CONTINUOUS
 62
    92
 10
0.5813278660594525
 20
0.6918029070109869
 30
0.0
 11
0.5683513717173229
 21
0.6650068473285621
 31
0.0
  0
LINE
  5
95
  8
C-ROAD-SPIR
  6
CONTINUOUS
 62
    92
 10
0.5950200697086407
 20
0.7182401253966532
 30
0.0
 11
0.5813278660594525
 21
0.6918029070109869
 31
0.0
  0
LINE
  5
96
  8
C-ROAD-SPIR
  6
CONTINUOUS
 62
    92
 10
0.6095180577330656
 20
0.744243853141282
 30
0.0
 11
0.5950200697086407
 21
0.7182401253966532
 31
0.0
  0
LINE
  5
97
  8
C-ROAD-SPIR
  6
CONTINUOUS
 62
    92
 10
0.6249061290985943
 20
0.7697305781086075
 30
0.0
 11
0.6095180577330656
 21
0.744243853141282
 31
0.0
  0
LINE
  5
98
  8
C-ROAD-SPIR
  6
CONTINUOUS
 62
    92
 10
0.6412615400294457
 20
0.794607165892163
 30
0.0
 11
0.6249061290985943
 21
0.7697305781086075
 31
0.0
  0
LINE
  5
99
  8
C-ROAD-SPIR
  6
CONTINUOUS
 62
    92
 10
0.6586530663378357
 20
0.8187702558403049
 30
0.0
 11
0.6412615400294457
 21
0.794607165892163
 31
0.0
  0
LINE
  5
9A
  8
C-ROAD-SPIR
  6
CONTINUOUS
 62
    92
 10
0.6771393895344078
 20
0.8421058465729513
 30
0.0
 11
0.6586530663378357
 21
0.8187702558403049
 31
0.0
  0
LINE
  5
9B
  8
C-ROAD-SPIR
  6
CONTINUOUS
 62
    92
 10
0.6967673073031992
 20
0.86448910910664
 30
0.0
 11
0.6771393895344078
 21
0.8421058465729513
 31
0.0
  0
LINE
  5
9C
  8
C-ROAD-SPIR
  6
CONTINUOUS
 62
    92
 10
0.7175697758822015
 20
0.8857844695545102
 30
0.0
 11
0.6967673073031992
 21
0.86448910910664
 31
0.0
  0
LINE
  5
9D
  8
C-ROAD-SPIR
  6
CONTINUOUS
 62
    92
 10
0.7395638001327932
 20
0.9058460066729805
 30
0.0
 11
0.7175697758822015
 21
0.8857844695545102
 31
0.0
  0
LINE
  5
9E
  8
C-ROAD-SPIR
  6
CONTINUOUS
 62
    92
 10
0.7627481966760131
 20
0.9245182119725882
 30
0.0
 11
0.7395638001327932
 21
0.9058460066729805
 31
0.0
  0
LINE
  5
9F
  8
C-ROAD-SPIR
  6
CONTINUOUS
 62
    92
 10
0.7871012664421038
 20
0.94163716133337
 30
0.0
 11
0.7627481966760131
 21
0.9245182119725882
 31
0.0
  0
LINE
  5
A0
  8
C-ROAD-SPIR
  6
CONTINUOUS
 62
    92
 10
0.8125784252805791
 20
0.9570321466553527
 30
0.0
 11
0.7871012664421038
 21
0.94163716133337
 31
0.0
  0
LINE
  5
A1
  8
C-ROAD-SPIR
  6
CONTINUOUS
 62
    92
 10
0.8391098547891767
 20
0.9705278135811276
 30
0.0
 11
0.8125784252805791
 21
0.9570321466553527
 31
0.0
  0
LINE
  5
A2
  8
C-ROAD-SPIR
  6
CONTINUOUS
 62
    92
 10
0.8665982500192013
 20
0.9819468462680685
 30
0.0
 11
0.8391098547891767
 21
0.9705278135811276
 31
0.0
  0
LINE
  5
A3
  8
C-ROAD-SPIR
  6
CONTINUOUS
 62
    92
 10
0.8949167558598335
 20
0.9911132320648073
 30
0.0
 11
0.8665982500192013
 21
0.9819468462680685
 31
0.0
  0
LINE
  5
A4
  8
C-ROAD-SPIR
  6
CONTINUOUS
 62
    92
 10
0.9239071992134951
 20
0.9978561272685947
 30
0.0
 11
0.8949167558598335
 21
0.9911132320648073
 31
0.0
  0
LINE
  5
A5
  8
C-ROAD-SPIR
  6
CONTINUOUS
 62
    92
 10
0.9533787389103482
 20
1.002014329450651
 30
0.0
 11
0.9239071992134951
 21
0.9978561272685947
 31
0.0
  0
LINE
  5
A6
  8
C-ROAD-SPIR
  6
CONTINUOUS
 62
    92
 10
0.9831070688644754
 20
1.003441341750595
 30
0.0
 11
0.9533787389103482
 21
1.002014329450651
 31
0.0
  0
LINE
  5
A7
  8
C-ROAD-SPIR
  6
CONTINUOUS
 62
    92
 10
1.012834321261935
 20
1.002010989789649
 30
0.0
 11
0.9831070688644754
 21
1.003441341750595
 31
0.0
  0
LINE
  5
A8
  8
C-ROAD-SPIR
  6
CONTINUOUS
 62
    92
 10
1.04226982443061
 20
0.9976235223349013
 30
0.0
 11
1.012834321261935
 21
1.002010989789649
 31
0.0
  0
LINE
  5
A9
  8
C-ROAD-SPIR
  6
CONTINUOUS
 62
    92
 10
1.07109187314982
 20
0.9902120926898037
 30
0.0
 11
1.04226982443061
 21
0.9976235223349013
 31
0.0
  0
LINE
  5
AA
  8
C-ROAD-SPIR
  6
CONTINUOUS
 62
    92
 10
1.098950666055918
 20
0.979749479406754
 30
0.0
 11
1.07109187314982
 21
0.9902120926898037
 31
0.0
  0
LINE
  5
AB
  8
C-ROAD-SPIR
  6
CONTINUOUS
 62
    92
 10
1.125472553942286
 20
0.9662548630904474
 30
0.0
 11
1.098950666055918
 21
0.979749479406754
 31
0.0
  0
LINE
  5
AC
  8
C-ROAD-SPIR
  6
CONTINUOUS
 62
    92
 10
1.150265722571783
 20
0.9498004319814652
 30
0.0
 11
1.125472553942286
 21
0.9662548630904474
 31
0.0
  0
ENDSEC
  0
EOF
